<?xml version="1.0" encoding="UTF-8"?>
<!DOCTYPE svg PUBLIC "-//W3C//DTD SVG 1.1//EN" "http://www.w3.org/Graphics/SVG/1.1/DTD/svg11.dtd">
<!-- Creator: CorelDRAW 2020 (64-Bit) -->
<svg xmlns="http://www.w3.org/2000/svg" xml:space="preserve" width="8px" height="10px" version="1.1" style="shape-rendering:geometricPrecision; text-rendering:geometricPrecision; image-rendering:optimizeQuality; fill-rule:evenodd; clip-rule:evenodd"
viewBox="0 0 0.2 0.262"
 xmlns:xlink="http://www.w3.org/1999/xlink"
 xmlns:xodm="http://www.corel.com/coreldraw/odm/2003">
 <defs>
  <style type="text/css">
   <![CDATA[
    .fil0 {fill:#2B2A29}
   ]]>
  </style>
 </defs>
 <g id="Слой_x0020_1">
  <metadata id="CorelCorpID_0Corel-Layer"/>
  <g>
   <path class="fil0" d="M0.052 0.146l-0.046 0.046c-0.008,0.008 -0.008,0.022 0.001,0.03l0.035 0.034c0.008,0.008 0.021,0.008 0.029,0l0.122 -0.109c0.01,-0.009 0.01,-0.024 0,-0.032l-0.122 -0.11c-0.008,-0.007 -0.021,-0.007 -0.029,0.001l-0.035 0.033c-0.009,0.009 -0.009,0.023 -0.001,0.031l0.046 0.046c0.009,0.008 0.009,0.022 0,0.03z"/>
   <path id="1" class="fil0" d="M0.062 0.157l-0.045 0.045 0 0 -0.001 0c-0.001,0.001 -0.002,0.003 -0.002,0.005l0 0c0,0.002 0.001,0.003 0.002,0.005l0.001 0 0.035 0.034c0.001,0.001 0.003,0.002 0.005,0.002 0.002,0 0.003,-0.001 0.005,-0.002l0.122 -0.11 0 0 0 0c0.002,-0.002 0.002,-0.003 0.002,-0.005 0,-0.002 0,-0.004 -0.002,-0.005l0 -0.001c0,0 0,0 0,0l-0.122 -0.109c-0.002,-0.001 -0.003,-0.002 -0.005,-0.002 -0.002,0 -0.004,0.001 -0.005,0.002l-0.035 0.034 -0.001 0c-0.001,0.001 -0.002,0.003 -0.002,0.005 0,0 0,0 0,0l0 0c0,0.002 0.001,0.003 0.002,0.005l0.001 0c0,0 0,0 0,0l0.045 0.046c0,0 0,0 0.001,0l0 0 0 0c0,0 0,0 0.001,0.001 0.006,0.007 0.009,0.015 0.009,0.024l0 0c0,0.009 -0.003,0.018 -0.01,0.025 0,0 0,0 0,0l0 0 0 0c-0.001,0 -0.001,0.001 -0.001,0.001zm-0.01 -0.011l-0.046 0.046c-0.008,0.008 -0.008,0.022 0.001,0.03l0.035 0.034c0.008,0.008 0.021,0.008 0.029,0l0.122 -0.109c0.01,-0.009 0.01,-0.024 0,-0.032l-0.122 -0.11c-0.008,-0.007 -0.021,-0.007 -0.029,0.001l-0.035 0.033c-0.009,0.009 -0.009,0.023 -0.001,0.031l0.046 0.046c0.009,0.008 0.009,0.022 0,0.03z"/>
  </g>
 </g>
</svg>
