<?xml version="1.0" encoding="UTF-8"?>
<!DOCTYPE svg PUBLIC "-//W3C//DTD SVG 1.1//EN" "http://www.w3.org/Graphics/SVG/1.1/DTD/svg11.dtd">
<!-- Creator: CorelDRAW 2019 (64-Bit) -->
<svg xmlns="http://www.w3.org/2000/svg" xml:space="preserve" width="42px" height="18px" version="1.1" style="shape-rendering:geometricPrecision; text-rendering:geometricPrecision; image-rendering:optimizeQuality; fill-rule:evenodd; clip-rule:evenodd"
viewBox="0 0 40.72 17.23"
 xmlns:xlink="http://www.w3.org/1999/xlink"
 xmlns:xodm="http://www.corel.com/coreldraw/odm/2003">
 <defs>
  <style type="text/css">
   <![CDATA[
    .fil1 {fill:#2B2A29}
    .fil0 {fill:#2B2A29;fill-rule:nonzero}
    .fnt0 {font-weight:normal;font-size:13.25px;font-family:'Arial'}
   ]]>
  </style>
 </defs>
 <g id="Слой_x0020_1">
  <metadata id="CorelCorpID_0Corel-Layer"/>
  <g id="_2157496774272">
   <path class="fil0" d="M3.39 0l33.93 0c0.46,0 0.9,0.09 1.29,0.26 0.42,0.17 0.79,0.42 1.11,0.73 0.3,0.32 0.55,0.7 0.74,1.11 0.16,0.4 0.26,0.84 0.26,1.29l0 10.45c0,0.47 -0.1,0.89 -0.26,1.29 -0.19,0.42 -0.43,0.79 -0.74,1.11 -0.31,0.31 -0.69,0.56 -1.11,0.73 -0.39,0.17 -0.83,0.26 -1.29,0.26l-33.93 0c-0.45,0 -0.89,-0.09 -1.29,-0.26 -0.41,-0.17 -0.79,-0.42 -1.11,-0.73 -0.31,-0.32 -0.56,-0.69 -0.73,-1.1 -0.17,-0.41 -0.26,-0.83 -0.26,-1.3l0 -10.45c0,-0.45 0.09,-0.89 0.26,-1.29 0.17,-0.41 0.42,-0.79 0.73,-1.11 0.32,-0.31 0.7,-0.56 1.11,-0.73 0.4,-0.17 0.84,-0.26 1.29,-0.26zm33.93 0.44l-33.93 0c-0.4,0 -0.78,0.07 -1.13,0.21 -0.36,0.16 -0.68,0.39 -0.95,0.66 -0.27,0.27 -0.5,0.59 -0.66,0.95 -0.14,0.35 -0.21,0.73 -0.21,1.13l0 10.45c0,0.41 0.07,0.78 0.21,1.13 0.16,0.36 0.39,0.68 0.66,0.97 0.27,0.27 0.59,0.48 0.95,0.63 0.35,0.15 0.73,0.22 1.13,0.22l33.93 0c0.4,0 0.78,-0.07 1.13,-0.22 0.36,-0.15 0.69,-0.36 0.96,-0.63 0.27,-0.29 0.5,-0.61 0.64,-0.97 0.14,-0.35 0.22,-0.72 0.22,-1.13l0 -10.45c0,-0.4 -0.08,-0.78 -0.22,-1.13 -0.14,-0.36 -0.37,-0.68 -0.64,-0.95 -0.27,-0.27 -0.6,-0.5 -0.96,-0.66 -0.35,-0.14 -0.73,-0.21 -1.13,-0.21z"/>
   <g>
    <g transform="matrix(0.999981 0 0 1 23.9585 1.19387)">
     <text x="-21" y="12.17"  class="fil1 fnt0">CTRL</text>
    </g>
   </g>
  </g>
 </g>
</svg>
