<?xml version="1.0" encoding="UTF-8"?>
<!DOCTYPE svg PUBLIC "-//W3C//DTD SVG 1.1//EN" "http://www.w3.org/Graphics/SVG/1.1/DTD/svg11.dtd">
<!-- Creator: CorelDRAW 2020 (64-Bit) -->
<svg xmlns="http://www.w3.org/2000/svg" xml:space="preserve" width="169px" height="122px" version="1.1" style="shape-rendering:geometricPrecision; text-rendering:geometricPrecision; image-rendering:optimizeQuality; fill-rule:evenodd; clip-rule:evenodd"
viewBox="0 0 45.96 33.19"
 xmlns:xlink="http://www.w3.org/1999/xlink"
 xmlns:xodm="http://www.corel.com/coreldraw/odm/2003">
 <defs>
  <style type="text/css">
   <![CDATA[
    .str0 {stroke:#393185;stroke-width:0.48;stroke-linecap:round;stroke-linejoin:round;stroke-miterlimit:22.9256}
    .str1 {stroke:#2B2A29;stroke-width:0.48;stroke-linecap:round;stroke-linejoin:round;stroke-miterlimit:22.9256}
    .fil2 {fill:none}
    .fil1 {fill:#2B2A29}
    .fil0 {fill:#FEFEFE}
   ]]>
  </style>
 </defs>
 <g id="Слой_x0020_1">
  <metadata id="CorelCorpID_0Corel-Layer"/>
  <g id="_2106384069920">
   <polygon class="fil0" points="0,0 45.96,0 45.96,33.19 0,33.19 "/>
   <path id="_1" class="fil1" d="M0 0l45.96 0 0 33.19 -45.96 0 0 -33.19zm45.48 0.48l-45 0 0 32.23 45 0 0 -32.23z"/>
  </g>
  <line class="fil2 str0" x1="32.41" y1="13.92" x2="43.78" y2= "13.92" />
  <line class="fil2 str0" x1="31.58" y1="27.38" x2="42.95" y2= "27.38" />
  <line class="fil2 str0" x1="41.86" y1="26.49" x2="41.86" y2= "14.49" />
  <line class="fil2 str0" x1="40.33" y1="16.98" x2="41.86" y2= "14.49" />
  <line class="fil2 str0" x1="43.39" y1="16.98" x2="41.86" y2= "14.49" />
  <line class="fil2 str0" x1="40.33" y1="24" x2="41.86" y2= "26.49" />
  <line class="fil2 str0" x1="43.39" y1="24" x2="41.86" y2= "26.49" />
  <g id="_2106384076256">
   <line class="fil2 str1" x1="2.84" y1="2.95" x2="25.47" y2= "2.95" />
   <line class="fil2 str1" x1="2.86" y1="2.95" x2="7.96" y2= "10.61" />
   <line class="fil2 str1" x1="25.47" y1="2.95" x2="30.95" y2= "10.61" />
   <line class="fil2 str1" x1="7.96" y1="10.61" x2="30.95" y2= "10.61" />
   <line class="fil2 str1" x1="2.84" y1="6.35" x2="2.84" y2= "2.95" />
   <line class="fil2 str1" x1="2.86" y1="6.35" x2="7.96" y2= "14.02" />
   <line class="fil2 str1" x1="30.95" y1="10.61" x2="30.95" y2= "14.02" />
   <line class="fil2 str1" x1="7.96" y1="14.02" x2="30.95" y2= "14.02" />
   <line class="fil2 str1" x1="7.96" y1="10.61" x2="7.96" y2= "14.02" />
  </g>
  <g id="_2106384082208">
   <line class="fil2 str1" x1="2.84" y1="19.8" x2="25.47" y2= "19.8" />
   <line class="fil2 str1" x1="2.86" y1="19.8" x2="7.96" y2= "27.46" />
   <line class="fil2 str1" x1="25.47" y1="19.8" x2="30.95" y2= "27.46" />
   <line class="fil2 str1" x1="7.96" y1="27.46" x2="30.95" y2= "27.46" />
   <line class="fil2 str1" x1="2.84" y1="23.21" x2="2.84" y2= "19.8" />
   <line class="fil2 str1" x1="2.86" y1="23.21" x2="7.96" y2= "30.87" />
   <line class="fil2 str1" x1="30.95" y1="27.46" x2="30.95" y2= "30.87" />
   <line class="fil2 str1" x1="7.96" y1="30.87" x2="30.95" y2= "30.87" />
   <line class="fil2 str1" x1="7.96" y1="27.46" x2="7.96" y2= "30.87" />
  </g>
 </g>
</svg>
