<?xml version="1.0" encoding="UTF-8"?>
<!DOCTYPE svg PUBLIC "-//W3C//DTD SVG 1.1//EN" "http://www.w3.org/Graphics/SVG/1.1/DTD/svg11.dtd">
<!-- Creator: CorelDRAW 2020 (64-Bit) -->
<svg xmlns="http://www.w3.org/2000/svg" xml:space="preserve" width="30px" height="25px" version="1.1" style="shape-rendering:geometricPrecision; text-rendering:geometricPrecision; image-rendering:optimizeQuality; fill-rule:evenodd; clip-rule:evenodd"
viewBox="0 0 30 25"
 xmlns:xlink="http://www.w3.org/1999/xlink"
 xmlns:xodm="http://www.corel.com/coreldraw/odm/2003">
 <defs>
  <style type="text/css">
   <![CDATA[
    .fil0 {fill:#353535}
   ]]>
  </style>
 </defs>
 <g id="Слой_x0020_1">
  <metadata id="CorelCorpID_0Corel-Layer"/>
 </g>
 <g id="Слой_x0020_1_0">
  <metadata id="CorelCorpID_1Corel-Layer"/>
 </g>
 <g id="Слой_x0020_1_1">
  <metadata id="CorelCorpID_2Corel-Layer"/>
 </g>
 <g id="Слой_x0020_1_2">
  <metadata id="CorelCorpID_3Corel-Layer"/>
 </g>
 <g id="Слой_x0020_1_3">
  <metadata id="CorelCorpID_4Corel-Layer"/>
 </g>
 <g id="Слой_x0020_1_4">
  <metadata id="CorelCorpID_5Corel-Layer"/>
 </g>
 <g id="Слой_x0020_1_5">
  <metadata id="CorelCorpID_6Corel-Layer"/>
 </g>
 <g id="Слой_x0020_1_6">
  <metadata id="CorelCorpID_7Corel-Layer"/>
 </g>
 <g id="Слой_x0020_1_7">
  <metadata id="CorelCorpID_8Corel-Layer"/>
 </g>
 <g id="Слой_x0020_1_8">
  <metadata id="CorelCorpID_9Corel-Layer"/>
 </g>
 <g id="Слой_x0020_1_9">
  <metadata id="CorelCorpID_10Corel-Layer"/>
 </g>
 <g id="Слой_x0020_1_10">
  <metadata id="CorelCorpID_11Corel-Layer"/>
 </g>
 <g id="Слой_x0020_1_11">
  <metadata id="CorelCorpID_12Corel-Layer"/>
 </g>
 <g id="Слой_x0020_1_12">
  <metadata id="CorelCorpID_13Corel-Layer"/>
 </g>
 <g id="Слой_x0020_1_13">
  <metadata id="CorelCorpID_14Corel-Layer"/>
 </g>
 <g id="Слой_x0020_1_14">
  <metadata id="CorelCorpID_15Corel-Layer"/>
  <path class="fil0" d="M15.67 14.09c-0.75,-0.68 -2.63,-2.93 -4.5,-1.88 -1.96,1.13 0,2.93 0.97,4.28 1.51,1.96 4.06,5.26 4.51,7.66 0.07,0.75 -0.23,1.05 0.37,1.28 0.75,0.07 0.53,-0.6 0.3,-1.88 -0.52,-2.33 -3.98,-7.06 -5.4,-8.78 -0.53,-0.6 -1.35,-1.66 -0.08,-1.96 2.03,-0.52 2.93,2.63 4.36,2.63 1.12,-1.57 -0.9,-10.59 1.12,-11.04 1.96,-0.45 1.36,2.93 1.36,4.36l0 4.5c0,0.83 -0.23,0.91 0.45,1.06 0.52,-0.45 0.3,-1.88 0.3,-3.08 0,-1.35 0.15,-1.95 1.65,-1.8 0.75,0.9 0.52,0.97 0.52,2.32 0,1.88 -0.3,2.41 0.53,2.56 0.9,-0.91 -0.38,-2.11 0.83,-3.68 3.07,-0.3 0.52,3.38 1.87,4.5 0.98,-0.37 0.3,-0.97 0.45,-2.03 0.15,-0.82 0.83,-1.2 1.58,-0.75 0.68,0.53 0.45,3.61 0.38,4.66 -0.15,2.93 -1.51,5.63 -1.73,8.41 0.9,0.07 0.67,0.23 0.9,-0.38l0.75 -3.68c1.05,-3.9 0.9,-3.97 0.9,-7.65 -0.07,-1.96 -0.9,-2.63 -2.78,-2.11 -0.15,-1.57 -1.27,-2.25 -2.77,-1.57 -0.46,-0.53 -0.76,-1.96 -3.01,-1.21 -0.15,-2.47 0.45,-4.95 -1.58,-5.25 -1.5,-0.23 -2.17,0.67 -2.25,2.03 -0.15,2.7 0,5.78 0,8.48l0 0 0 0 0 0zm-6.68 -7.88l0 -2.26 1.13 0 -1.81 -3.45 -1.8 3.45 1.13 0 0 2.26 -2.25 0 0 -1.13 -3.46 1.8 3.46 1.8 0 -1.12 2.25 0 0 2.25 -1.13 0 1.8 3.38 1.81 -3.38 -1.13 0 0 -2.25 2.25 0 0 1.12 3.38 -1.8 -3.38 -1.8 0 1.13 -2.25 0z"/>
 </g>
 <g id="Слой_x0020_1_15">
  <metadata id="CorelCorpID_16Corel-Layer"/>
 </g>
</svg>
