<?xml version="1.0" encoding="UTF-8"?>
<!DOCTYPE svg PUBLIC "-//W3C//DTD SVG 1.1//EN" "http://www.w3.org/Graphics/SVG/1.1/DTD/svg11.dtd">
<!-- Creator: CorelDRAW 2019 (64-Bit) -->
<svg xmlns="http://www.w3.org/2000/svg" xml:space="preserve" width="16px" height="25px" version="1.1" style="shape-rendering:geometricPrecision; text-rendering:geometricPrecision; image-rendering:optimizeQuality; fill-rule:evenodd; clip-rule:evenodd"
viewBox="0 0 16 24.96"
 xmlns:xlink="http://www.w3.org/1999/xlink"
 xmlns:xodm="http://www.corel.com/coreldraw/odm/2003">
 <defs>
  <style type="text/css">
   <![CDATA[
    .fil2 {fill:#2B2A29}
    .fil1 {fill:#2B2A29;fill-rule:nonzero}
    .fil0 {fill:black;fill-rule:nonzero}
   ]]>
  </style>
 </defs>
 <g id="Слой_x0020_1">
  <metadata id="CorelCorpID_0Corel-Layer"/>
  <g id="_2157371386272">
   <polygon class="fil0" points="8.09,0.32 8.09,2.08 7.9,2.08 7.9,0.32 "/>
   <polygon class="fil1" points="8.32,0.32 8.32,2.31 7.67,2.31 7.67,0.1 8.32,0.1 "/>
   <path class="fil0" d="M7.73 9.4l0.54 0c0.26,0 0.48,-0.11 0.65,-0.27 0.17,-0.17 0.27,-0.41 0.27,-0.66l0 -5.38c0,-0.25 -0.1,-0.48 -0.27,-0.64 -0.17,-0.17 -0.39,-0.27 -0.65,-0.27l-0.54 0c-0.26,0 -0.48,0.1 -0.65,0.27 -0.17,0.16 -0.27,0.39 -0.27,0.64l0 5.38c0,0.25 0.1,0.49 0.27,0.66 0.17,0.15 0.39,0.27 0.65,0.27zm0.54 0.19l-0.54 0c-0.31,0 -0.59,-0.12 -0.79,-0.33 -0.2,-0.2 -0.32,-0.48 -0.32,-0.79l0 -5.38c0,-0.31 0.12,-0.59 0.32,-0.78 0.2,-0.2 0.48,-0.33 0.79,-0.33l0.54 0c0.3,0 0.58,0.13 0.79,0.33 0.2,0.19 0.32,0.47 0.32,0.78l0 5.38c0,0.31 -0.12,0.59 -0.32,0.79 -0.21,0.21 -0.49,0.33 -0.79,0.33z"/>
   <path class="fil1" d="M7.73 9.17l0.54 0c0.09,0 0.18,-0.02 0.25,-0.05 0.09,-0.04 0.17,-0.09 0.24,-0.15 0.06,-0.06 0.11,-0.14 0.15,-0.22 0.03,-0.09 0.05,-0.18 0.05,-0.28l0 -5.38c0,-0.09 -0.02,-0.18 -0.05,-0.26 -0.03,-0.08 -0.09,-0.16 -0.15,-0.23 -0.07,-0.06 -0.14,-0.11 -0.22,-0.14 -0.08,-0.04 -0.17,-0.06 -0.27,-0.06l-0.54 0c-0.1,0 -0.19,0.02 -0.27,0.05 -0.08,0.04 -0.16,0.09 -0.22,0.15 -0.06,0.07 -0.12,0.15 -0.15,0.23 -0.03,0.08 -0.05,0.17 -0.05,0.26l0 5.38c0,0.1 0.02,0.19 0.05,0.28 0.04,0.08 0.09,0.16 0.15,0.22 0.07,0.06 0.15,0.11 0.24,0.15 0.07,0.03 0.16,0.05 0.25,0.05zm0.54 0.65l-0.54 0c-0.19,0 -0.36,-0.04 -0.52,-0.11 -0.16,-0.06 -0.31,-0.17 -0.43,-0.29 -0.24,-0.24 -0.39,-0.58 -0.39,-0.95l0 -5.38c0,-0.18 0.04,-0.35 0.1,-0.51 0.07,-0.17 0.17,-0.31 0.29,-0.43 0.24,-0.24 0.58,-0.39 0.95,-0.39l0.54 0c0.18,0 0.35,0.03 0.5,0.1 0.17,0.06 0.32,0.16 0.44,0.28l0.01 0.01c0.24,0.23 0.39,0.57 0.39,0.94l0 5.38c0,0.18 -0.04,0.35 -0.1,0.51 -0.07,0.17 -0.17,0.32 -0.29,0.44 -0.13,0.12 -0.28,0.23 -0.44,0.29 -0.16,0.07 -0.33,0.11 -0.51,0.11z"/>
   <polygon class="fil0" points="8.09,9.5 8.09,11.24 7.9,11.24 7.9,9.5 "/>
   <polygon class="fil1" points="8.32,9.5 8.32,11.46 7.67,11.46 7.67,9.27 8.32,9.27 "/>
   <path class="fil1" d="M4.92 0l6.16 0c0.66,0 1.29,0.13 1.87,0.37 0.6,0.25 1.15,0.62 1.61,1.07 0.45,0.45 0.82,1 1.07,1.6 0.24,0.58 0.37,1.22 0.37,1.88l0 15.12c0,0.66 -0.13,1.3 -0.37,1.88 -0.25,0.6 -0.62,1.15 -1.07,1.6 -0.46,0.45 -1.01,0.82 -1.61,1.07 -0.58,0.24 -1.21,0.37 -1.87,0.37l-6.16 0c-0.66,0 -1.3,-0.13 -1.88,-0.38 -0.6,-0.25 -1.15,-0.61 -1.6,-1.06 -0.45,-0.45 -0.81,-1 -1.06,-1.6 -0.25,-0.58 -0.38,-1.22 -0.38,-1.88l0 -15.12c0,-0.66 0.13,-1.3 0.38,-1.88 0.25,-0.6 0.61,-1.15 1.06,-1.6 0.45,-0.45 1,-0.81 1.6,-1.06 0.58,-0.25 1.22,-0.38 1.88,-0.38zm6.16 0.65l-6.16 0c-0.58,0 -1.13,0.11 -1.63,0.32 -0.52,0.22 -0.99,0.54 -1.39,0.93 -0.77,0.78 -1.25,1.84 -1.25,3.02l0 15.12c0,0.58 0.12,1.13 0.32,1.63 0.22,0.52 0.54,0.99 0.93,1.39 0.78,0.77 1.84,1.25 3.02,1.25l6.16 0c0.58,0 1.13,-0.12 1.63,-0.32 0.52,-0.22 0.99,-0.54 1.39,-0.93 0.77,-0.78 1.25,-1.84 1.25,-3.02l0 -15.12c0,-0.58 -0.12,-1.13 -0.32,-1.63 -0.22,-0.52 -0.54,-0.99 -0.93,-1.39 -0.78,-0.77 -1.84,-1.25 -3.02,-1.25z"/>
   <polygon class="fil0" points="15.68,11.33 0.32,11.33 0.32,11.15 15.68,11.15 "/>
   <polygon class="fil1" points="15.68,11.56 0.1,11.56 0.1,10.93 15.9,10.93 15.9,11.56 "/>
   <path class="fil2" d="M8.27 9.4c0.26,0 0.48,-0.11 0.65,-0.27 0.17,-0.17 0.27,-0.41 0.27,-0.66l0 -5.38c0,-0.25 -0.1,-0.48 -0.27,-0.64 -0.17,-0.17 -0.39,-0.27 -0.65,-0.27l-0.54 0c-0.26,0 -0.48,0.1 -0.65,0.27 -0.17,0.16 -0.27,0.39 -0.27,0.64l0 5.38c0,0.25 0.1,0.49 0.27,0.66 0.17,0.15 0.39,0.27 0.65,0.27l0.54 0z"/>
  </g>
 </g>
</svg>
