<?xml version="1.0" encoding="UTF-8"?>
<!DOCTYPE svg PUBLIC "-//W3C//DTD SVG 1.1//EN" "http://www.w3.org/Graphics/SVG/1.1/DTD/svg11.dtd">
<!-- Creator: CorelDRAW 2019 (64-Bit) -->
<svg xmlns="http://www.w3.org/2000/svg" xml:space="preserve" width="34px" height="18px" version="1.1" style="shape-rendering:geometricPrecision; text-rendering:geometricPrecision; image-rendering:optimizeQuality; fill-rule:evenodd; clip-rule:evenodd"
viewBox="0 0 19.19 10.04"
 xmlns:xlink="http://www.w3.org/1999/xlink"
 xmlns:xodm="http://www.corel.com/coreldraw/odm/2003">
 <defs>
  <style type="text/css">
   <![CDATA[
    .fil1 {fill:#2B2A29}
    .fil0 {fill:#2B2A29;fill-rule:nonzero}
    .fnt0 {font-weight:normal;font-size:7.72px;font-family:'Arial'}
   ]]>
  </style>
 </defs>
 <g id="Слой_x0020_1">
  <metadata id="CorelCorpID_0Corel-Layer"/>
  <path class="fil0" d="M2.22 0l14.99 0c0.27,0 0.52,0.05 0.76,0.15 0.24,0.1 0.45,0.25 0.64,0.43 0.18,0.18 0.32,0.4 0.43,0.64 0.09,0.23 0.15,0.49 0.15,0.76l0 6.08c0,0.27 -0.06,0.52 -0.15,0.75 -0.11,0.25 -0.25,0.47 -0.43,0.65 -0.18,0.18 -0.4,0.33 -0.64,0.43 -0.23,0.1 -0.49,0.15 -0.76,0.15l-14.99 0c-0.27,0 -0.52,-0.05 -0.75,-0.15 -0.24,-0.1 -0.47,-0.25 -0.65,-0.43 -0.18,-0.18 -0.33,-0.4 -0.43,-0.64 -0.1,-0.24 -0.15,-0.49 -0.15,-0.76l0 -6.08c0,-0.27 0.05,-0.52 0.15,-0.76 0.1,-0.24 0.25,-0.46 0.43,-0.64 0.18,-0.18 0.41,-0.33 0.65,-0.43 0.23,-0.1 0.48,-0.15 0.75,-0.15zm14.99 0.26l-15.49 0c-0.23,0 -0.46,0.04 -0.66,0.12 -0.21,0.09 -0.4,0.22 -0.56,0.38 -0.15,0.16 -0.29,0.35 -0.38,0.55 -0.08,0.21 -0.12,0.43 -0.12,0.67l0 6.08c0,0.24 0.04,0.46 0.12,0.66 0.1,0.21 0.23,0.4 0.38,0.56 0.16,0.16 0.35,0.29 0.56,0.38 0.2,0.08 0.43,0.12 0.66,0.12l15.49 0c0.24,0 0.46,-0.04 0.66,-0.12 0.21,-0.09 0.4,-0.22 0.56,-0.38 0.16,-0.16 0.29,-0.35 0.37,-0.56 0.08,-0.2 0.13,-0.42 0.13,-0.66l0 -6.08c0,-0.24 -0.05,-0.46 -0.13,-0.67 -0.08,-0.2 -0.21,-0.39 -0.37,-0.55 -0.16,-0.16 -0.35,-0.29 -0.56,-0.38 -0.2,-0.08 -0.42,-0.12 -0.66,-0.12z"/>
  <g id="_3078997197120">
   <g transform="matrix(0.999965 0 0 1 -15.1233 0.695461)">
    <text x="17" y="7.09"  class="fil1 fnt0">ESC</text>
   </g>
  </g>
 </g>
</svg>
