<?xml version="1.0" encoding="UTF-8"?>
<!DOCTYPE svg PUBLIC "-//W3C//DTD SVG 1.1//EN" "http://www.w3.org/Graphics/SVG/1.1/DTD/svg11.dtd">
<!-- Creator: CorelDRAW 2020 (64-Bit) -->
<svg xmlns="http://www.w3.org/2000/svg" xml:space="preserve" width="62px" height="63px" version="1.1" style="shape-rendering:geometricPrecision; text-rendering:geometricPrecision; image-rendering:optimizeQuality; fill-rule:evenodd; clip-rule:evenodd"
viewBox="0 0 4.23 4.23"
 xmlns:xlink="http://www.w3.org/1999/xlink"
 xmlns:xodm="http://www.corel.com/coreldraw/odm/2003">
 <defs>
  <style type="text/css">
   <![CDATA[
    .fil1 {fill:#858585}
    .fil2 {fill:#DD3914}
    .fil3 {fill:#FB8257}
    .fil0 {fill:#FE5928}
   ]]>
  </style>
 </defs>
 <g id="Слой_x0020_1">
  <metadata id="CorelCorpID_0Corel-Layer"/>
  <g id="_2498731591296">
   <polygon class="fil0" points="0.85,0.28 0.85,0.56 0.56,0.56 0.56,0.85 0.85,0.85 0.85,0.56 1.13,0.56 1.13,0.28 1.41,0.28 1.41,0.85 1.69,0.85 1.69,1.13 1.41,1.13 1.41,1.69 1.13,1.69 1.13,1.13 0.85,1.13 0.85,1.69 1.13,1.69 1.13,1.97 0.85,1.97 0.85,2.26 0.56,2.26 0.56,2.54 0.28,2.54 0.28,3.1 0,3.1 0,3.66 0.85,3.66 0.85,3.38 1.41,3.38 1.41,3.1 1.69,3.1 1.69,2.82 2.26,2.82 2.26,3.1 2.54,3.1 2.54,2.54 2.82,2.54 2.82,2.26 2.54,2.26 2.54,1.69 2.82,1.69 2.82,1.41 3.1,1.41 3.1,1.13 3.38,1.13 3.38,0.85 3.66,0.85 3.66,0.28 3.38,0.28 3.38,0 2.82,0 2.82,0.56 2.54,0.56 2.54,0.85 2.26,0.85 2.26,1.13 1.97,1.13 1.97,0.85 1.69,0.85 1.69,0.28 1.41,0.28 1.41,0 1.13,0 1.13,0.28 "/>
   <polygon class="fil1" points="3.66,0.85 3.66,1.13 3.38,1.13 3.38,1.69 3.1,1.69 3.1,2.26 3.38,2.26 3.38,2.54 3.66,2.54 3.66,2.82 3.95,2.82 3.95,3.1 3.66,3.1 3.66,3.38 3.38,3.38 3.38,3.66 2.54,3.66 2.54,3.38 2.26,3.38 2.26,3.1 1.69,3.1 1.69,3.38 1.41,3.38 1.41,3.66 0.85,3.66 0.85,3.95 0.56,3.95 0.56,4.23 1.41,4.23 1.41,3.95 1.97,3.95 1.97,3.66 2.54,3.66 2.54,3.95 2.82,3.95 2.82,4.23 3.66,4.23 3.66,3.95 3.95,3.95 3.95,3.66 4.23,3.66 4.23,2.82 3.95,2.82 3.95,2.54 3.66,2.54 3.66,1.69 3.95,1.69 3.95,1.41 4.23,1.41 4.23,0.56 3.95,0.56 3.95,0.85 "/>
   <polygon class="fil2" points="3.38,1.13 3.1,1.13 3.1,1.41 2.82,1.41 2.82,1.69 2.54,1.69 2.54,2.26 2.82,2.26 2.82,2.54 2.54,2.54 2.54,3.1 2.26,3.1 2.26,2.82 1.69,2.82 1.69,3.1 1.41,3.1 1.41,3.38 0.85,3.38 0.85,3.66 0.28,3.66 0.28,3.95 0.85,3.95 0.85,3.66 1.41,3.66 1.41,3.38 1.69,3.38 1.69,3.1 2.26,3.1 2.26,3.38 2.54,3.38 2.54,3.66 3.38,3.66 3.38,3.38 3.66,3.38 3.66,3.1 3.95,3.1 3.95,2.82 3.66,2.82 3.66,2.54 3.38,2.54 3.38,2.26 3.1,2.26 3.1,1.69 3.38,1.69 3.38,1.13 3.66,1.13 3.66,0.85 3.95,0.85 3.95,0.28 3.66,0.28 3.66,0.85 3.38,0.85 "/>
   <path class="fil3" d="M0.85 0.28l-0.29 0 0 0.28 0.29 0 0 -0.28zm-0.29 0.57l0 0.28 0.57 0 0 0.56 0.28 0 0 -0.56 0.28 0 0 -0.28 -0.28 0 0 -0.57 -0.28 0 0 0.28 -0.28 0 0 0.29 -0.29 0zm1.7 0l-0.29 0 0 -0.29 -0.28 0 0 0.29 0.28 0 0 0.28 0.29 0 0 -0.28zm-1.41 1.12l0.28 0 0 -0.28 -0.28 0 0 0.28z"/>
  </g>
 </g>
</svg>
