<?xml version="1.0" encoding="UTF-8"?>
<!DOCTYPE svg PUBLIC "-//W3C//DTD SVG 1.1//EN" "http://www.w3.org/Graphics/SVG/1.1/DTD/svg11.dtd">
<!-- Creator: CorelDRAW 2019 (64-Bit) -->
<svg xmlns="http://www.w3.org/2000/svg" xml:space="preserve" width="153px" height="154px" version="1.1" style="shape-rendering:geometricPrecision; text-rendering:geometricPrecision; image-rendering:optimizeQuality; fill-rule:evenodd; clip-rule:evenodd"
viewBox="0 0 53.93 54.34"
 xmlns:xlink="http://www.w3.org/1999/xlink"
 xmlns:xodm="http://www.corel.com/coreldraw/odm/2003">
 <defs>
  <style type="text/css">
   <![CDATA[
    .fil0 {fill:#9D9E9E}
    .fil2 {fill:#E31E24}
    .fil1 {fill:#00A0E3}
   ]]>
  </style>
 </defs>
 <g id="Слой_x0020_1">
  <metadata id="CorelCorpID_0Corel-Layer"/>
  <path class="fil0" d="M25.18 23.15c0.87,7.5 2.25,15.44 2.99,23.03 0.13,1.37 -0.64,2.56 -1.95,2.6 -1.55,0.05 -2.09,-0.99 -2.31,-2.2 -0.47,-2.61 -2.08,-18.79 -2.4,-19.2 -0.28,0.13 -0.5,0.86 -1.18,0.98 -2.29,0.4 -1.92,-2.74 -2.62,-3.99l-1.53 0.4c0.88,6.47 2.16,20.74 3.66,26.39 1.46,3.77 1.16,3.13 5.54,3.13 7.02,0 14.68,0.11 21.61,0 2.14,-0.03 2.28,-1.47 2.66,-1.76 1.11,-9.23 2.4,-18.52 3.43,-27.75 0.21,-1.87 0.85,-5.2 0.66,-7.02 -0.24,-0.99 -0.97,-1.18 -1.57,-1.34 -2.26,-0.6 -18.84,-0.58 -21.46,-0.23 -2.19,2.71 -4.7,6.03 -5.53,6.96zm9.42 -1.61c1.18,0 2.14,0.96 2.14,2.14l0 23.05c0,1.18 -0.96,2.14 -2.14,2.14 -1.17,0 -2.14,-0.96 -2.14,-2.14l0 -23.05c0,-1.18 0.97,-2.14 2.14,-2.14zm11.5 0.16c1.17,0.14 2.01,1.21 1.87,2.38l-2.72 22.89c-0.14,1.16 -1.21,2.01 -2.38,1.87 -1.17,-0.14 -2.01,-1.21 -1.87,-2.38l2.73 -22.89c0.13,-1.17 1.2,-2.01 2.37,-1.87zm-29.77 -7.64c-3.19,1.47 -5.54,1.64 -8.83,5.08 -3.24,3.39 -5.24,7.4 -4.64,12.15 5.26,-5.69 8.71,-6.79 15.84,-8.6 0.56,1.59 0.93,2.82 1.3,4.24 0.29,-0.16 7.89,-10.32 8.77,-11.41 -2.03,-0.89 -7.12,-3.2 -13.29,-5.48 0.02,0.72 0.87,3.66 0.85,4.02zm14.34 -7.83c-2.22,-0.18 -6.43,-1.06 -8.99,-1.58 -1.1,-0.22 -4.25,-0.81 -5.17,-0.65 -1.21,0.2 -2.42,2.19 -1.33,3.63 0.84,1.11 2.36,1.14 3.63,1.36 8.96,1.51 17.9,2.99 26.85,4.67 2.46,0.46 5.75,1.01 6.62,0.72 1.21,-0.4 1.86,-1.31 1.59,-2.64 -0.24,-1.19 -0.79,-1.52 -2.12,-1.83 -3.83,-0.32 -8.85,-1.6 -12.93,-2.22 1.14,-3.5 -0.26,-5.84 -3.41,-6.02 -3.5,-0.2 -4.81,1.48 -4.74,4.56z"/>
  <path class="fil1" d="M13.57 12.41c-3.19,1.47 -5.54,1.63 -8.83,5.08 -3.24,3.39 -5.23,7.4 -4.63,12.15 5.25,-5.69 8.7,-6.79 15.83,-8.61 0.57,1.6 0.93,2.82 1.3,4.24 0.3,-0.15 7.89,-10.31 8.78,-11.41 -2.03,-0.88 -7.12,-3.19 -13.3,-5.47 0.03,0.72 0.87,3.66 0.85,4.02z"/>
  <path class="fil2" d="M22.43 21.49c0.87,7.51 2.25,15.44 2.99,23.04 0.13,1.37 -0.64,2.55 -1.95,2.6 -1.56,0.05 -2.09,-1 -2.31,-2.2 -0.47,-2.61 -2.08,-18.8 -2.41,-19.2 -0.28,0.12 -0.49,0.86 -1.17,0.98 -2.3,0.4 -1.93,-2.74 -2.62,-3.99l-1.54 0.4c0.89,6.46 2.17,20.74 3.67,26.39 1.45,3.76 1.16,3.13 5.53,3.13 7.02,0 14.69,0.1 21.62,0 2.13,-0.04 2.27,-1.47 2.66,-1.76 1.11,-9.23 2.4,-18.53 3.43,-27.76 0.2,-1.86 0.84,-5.19 0.65,-7.01 -0.24,-0.99 -0.97,-1.18 -1.57,-1.34 -2.25,-0.6 -18.83,-0.59 -21.46,-0.23 -2.19,2.71 -4.7,6.02 -5.52,6.95zm9.42 -1.6c1.17,0 2.13,0.96 2.13,2.14l0 23.05c0,1.17 -0.96,2.13 -2.13,2.13 -1.18,0 -2.14,-0.96 -2.14,-2.13l0 -23.05c0,-1.18 0.96,-2.14 2.14,-2.14zm11.5 0.16c1.16,0.14 2.01,1.21 1.87,2.37l-2.73 22.9c-0.14,1.16 -1.21,2 -2.37,1.86 -1.17,-0.13 -2.01,-1.2 -1.87,-2.37l2.72 -22.89c0.14,-1.17 1.21,-2.01 2.38,-1.87zm-15.44 -15.47c-2.21,-0.19 -6.42,-1.06 -8.98,-1.58 -1.11,-0.22 -4.25,-0.81 -5.17,-0.66 -1.21,0.21 -2.43,2.2 -1.34,3.64 0.84,1.11 2.37,1.14 3.63,1.35 8.97,1.51 17.9,2.99 26.85,4.67 2.46,0.47 5.76,1.01 6.62,0.73 1.22,-0.4 1.86,-1.31 1.59,-2.64 -0.24,-1.19 -0.79,-1.52 -2.11,-1.84 -3.84,-0.32 -8.86,-1.59 -12.94,-2.21 1.15,-3.51 -0.25,-5.85 -3.41,-6.02 -3.49,-0.2 -4.81,1.47 -4.74,4.56z"/>
 </g>
</svg>
