<?xml version="1.0" encoding="UTF-8"?>
<!DOCTYPE svg PUBLIC "-//W3C//DTD SVG 1.1//EN" "http://www.w3.org/Graphics/SVG/1.1/DTD/svg11.dtd">
<!-- Creator: CorelDRAW 2020 (64-Bit) -->
<svg xmlns="http://www.w3.org/2000/svg" xml:space="preserve" width="169px" height="122px" version="1.1" style="shape-rendering:geometricPrecision; text-rendering:geometricPrecision; image-rendering:optimizeQuality; fill-rule:evenodd; clip-rule:evenodd"
viewBox="0 0 20.94 15.12"
 xmlns:xlink="http://www.w3.org/1999/xlink"
 xmlns:xodm="http://www.corel.com/coreldraw/odm/2003">
 <defs>
  <style type="text/css">
   <![CDATA[
    .str0 {stroke:#393185;stroke-width:0.22;stroke-linecap:round;stroke-linejoin:round;stroke-miterlimit:22.9256}
    .str1 {stroke:#2B2A29;stroke-width:0.22;stroke-linecap:round;stroke-linejoin:round;stroke-miterlimit:22.9256}
    .fil2 {fill:none}
    .fil1 {fill:#2B2A29}
    .fil0 {fill:#FEFEFE}
   ]]>
  </style>
 </defs>
 <g id="Слой_x0020_1">
  <metadata id="CorelCorpID_0Corel-Layer"/>
  <g id="_2106314157536">
   <polygon class="fil0" points="0,0 20.94,0 20.94,15.12 0,15.12 "/>
   <path id="_1" class="fil1" d="M0 0l20.94 0 0 15.12 -20.94 0 0 -15.12zm20.72 0.22l-20.5 0 0 14.68 20.5 0 0 -14.68z"/>
  </g>
  <line class="fil2 str0" x1="14.76" y1="4.78" x2="19.94" y2= "4.78" />
  <line class="fil2 str0" x1="14.39" y1="14.09" x2="19.56" y2= "14.09" />
  <line class="fil2 str0" x1="19.07" y1="13.7" x2="19.07" y2= "5.19" />
  <line class="fil2 str0" x1="18.37" y1="6.32" x2="19.07" y2= "5.19" />
  <line class="fil2 str0" x1="19.77" y1="6.32" x2="19.07" y2= "5.19" />
  <line class="fil2 str0" x1="18.37" y1="12.56" x2="19.07" y2= "13.7" />
  <line class="fil2 str0" x1="19.77" y1="12.56" x2="19.07" y2= "13.7" />
  <g id="_2106314147648">
   <line class="fil2 str1" x1="1.29" y1="1.34" x2="11.6" y2= "1.34" />
   <line class="fil2 str1" x1="1.3" y1="1.34" x2="3.63" y2= "4.83" />
   <line class="fil2 str1" x1="11.6" y1="1.34" x2="14.1" y2= "4.83" />
   <line class="fil2 str1" x1="3.63" y1="4.83" x2="14.1" y2= "4.83" />
   <line class="fil2 str1" x1="1.29" y1="2.89" x2="1.29" y2= "1.34" />
   <line class="fil2 str1" x1="1.3" y1="2.89" x2="3.63" y2= "6.38" />
   <line class="fil2 str1" x1="14.1" y1="4.83" x2="14.1" y2= "6.38" />
   <line class="fil2 str1" x1="3.63" y1="6.38" x2="14.1" y2= "6.38" />
   <line class="fil2 str1" x1="3.63" y1="4.83" x2="3.63" y2= "6.38" />
  </g>
  <g id="_2106314148224">
   <line class="fil2 str1" x1="1.29" y1="9.02" x2="11.6" y2= "9.02" />
   <line class="fil2 str1" x1="1.3" y1="9.02" x2="3.63" y2= "12.51" />
   <line class="fil2 str1" x1="11.6" y1="9.02" x2="14.1" y2= "12.51" />
   <line class="fil2 str1" x1="3.63" y1="12.51" x2="14.1" y2= "12.51" />
   <line class="fil2 str1" x1="1.29" y1="10.57" x2="1.29" y2= "9.02" />
   <line class="fil2 str1" x1="1.3" y1="10.57" x2="3.63" y2= "14.06" />
   <line class="fil2 str1" x1="14.1" y1="12.51" x2="14.1" y2= "14.06" />
   <line class="fil2 str1" x1="3.63" y1="14.06" x2="14.1" y2= "14.06" />
   <line class="fil2 str1" x1="3.63" y1="12.51" x2="3.63" y2= "14.06" />
  </g>
 </g>
</svg>
