<?xml version="1.0" encoding="UTF-8"?>
<!DOCTYPE svg PUBLIC "-//W3C//DTD SVG 1.1//EN" "http://www.w3.org/Graphics/SVG/1.1/DTD/svg11.dtd">
<!-- Creator: CorelDRAW 2020 (64-Bit) -->
<svg xmlns="http://www.w3.org/2000/svg" xml:space="preserve" width="45px" height="47px" version="1.1" style="shape-rendering:geometricPrecision; text-rendering:geometricPrecision; image-rendering:optimizeQuality; fill-rule:evenodd; clip-rule:evenodd"
viewBox="0 0 29.1 30.475"
 xmlns:xlink="http://www.w3.org/1999/xlink"
 xmlns:xodm="http://www.corel.com/coreldraw/odm/2003">
 <defs>
  <style type="text/css">
   <![CDATA[
    .str0 {stroke:#2B2A29;stroke-width:1.299;stroke-linejoin:round;stroke-miterlimit:22.9256}
    .fil0 {fill:none}
   ]]>
  </style>
 </defs>
 <g id="Слой_x0020_1">
  <metadata id="CorelCorpID_0Corel-Layer"/>
  <path class="fil0 str0" d="M28.641 30.016l-27.479 -27.479m0 27.479l27.479 -27.479m-16.856 1.525l0 10.403m-5.285 0c0,-5.632 -0.09,-5.511 0,-8.154 0.031,-4.333 4.56,-4.333 5.285,-2.25 0.212,-4.469 5.315,-4.589 5.753,-0.12 0.498,-2.325 4.892,-2.205 5.179,0.709 0.362,-1.102 4.151,-2.174 4.529,2.069 0.136,1.495 -0.014,6.583 -0.03,9.829 -1.102,17.862 -23.511,17.308 -26.439,-0.675 -0.953,-3.694 3.681,-5.706 5.723,-1.408zm11.038 -10.524l0 10.524m5.179 -9.814l0 9.814 0 -9.814z"/>
 </g>
</svg>
