<?xml version="1.0" encoding="UTF-8"?>
<!DOCTYPE svg PUBLIC "-//W3C//DTD SVG 1.1//EN" "http://www.w3.org/Graphics/SVG/1.1/DTD/svg11.dtd">
<!-- Creator: CorelDRAW 2020 (64-Bit) -->
<svg xmlns="http://www.w3.org/2000/svg" xml:space="preserve" width="43px" height="47px" version="1.1" style="shape-rendering:geometricPrecision; text-rendering:geometricPrecision; image-rendering:optimizeQuality; fill-rule:evenodd; clip-rule:evenodd"
viewBox="0 0 26.71 28.955"
 xmlns:xlink="http://www.w3.org/1999/xlink"
 xmlns:xodm="http://www.corel.com/coreldraw/odm/2003">
 <defs>
  <style type="text/css">
   <![CDATA[
    .str0 {stroke:#2B2A29;stroke-width:1.241;stroke-linecap:round;stroke-linejoin:round;stroke-miterlimit:22.9256}
    .fil0 {fill:none}
   ]]>
  </style>
 </defs>
 <g id="Слой_x0020_1">
  <metadata id="CorelCorpID_0Corel-Layer"/>
  <path class="fil0 str0" d="M11.261 3.882l0 9.94m-5.05 0c0,-5.382 -0.086,-5.266 0,-7.791 0.029,-4.141 4.358,-4.141 5.05,-2.15 0.202,-4.271 5.079,-4.386 5.497,-0.115 0.476,-2.222 4.675,-2.107 4.949,0.678 0.346,-1.054 3.967,-2.078 4.328,1.976 0.13,1.429 -0.014,6.291 -0.029,9.392 -1.053,17.069 -22.465,16.539 -25.264,-0.644 -0.911,-3.53 3.518,-5.453 5.469,-1.346zm10.547 -10.056l0 10.056m4.949 -9.378l0 9.378 0 -9.378z"/>
 </g>
</svg>
