<?xml version="1.0" encoding="UTF-8"?>
<!DOCTYPE svg PUBLIC "-//W3C//DTD SVG 1.1//EN" "http://www.w3.org/Graphics/SVG/1.1/DTD/svg11.dtd">
<!-- Creator: CorelDRAW 2020 (64-Bit) -->
<svg xmlns="http://www.w3.org/2000/svg" xml:space="preserve" width="35px" height="49px" version="1.1" style="shape-rendering:geometricPrecision; text-rendering:geometricPrecision; image-rendering:optimizeQuality; fill-rule:evenodd; clip-rule:evenodd"
viewBox="0 0 9.68 13.71"
 xmlns:xlink="http://www.w3.org/1999/xlink"
 xmlns:xodm="http://www.corel.com/coreldraw/odm/2003">
 <defs>
  <style type="text/css">
   <![CDATA[
    .fil0 {fill:#2B2A29;fill-rule:nonzero}
   ]]>
  </style>
 </defs>
 <g id="Слой_x0020_1">
  <metadata id="CorelCorpID_0Corel-Layer"/>
  <path class="fil0" d="M1.1 5.09l0.58 0 0 -1.78c0,-0.91 0.37,-1.74 0.97,-2.34 0.6,-0.6 1.43,-0.97 2.34,-0.97 0.92,0 1.74,0.37 2.34,0.97 0.6,0.6 0.97,1.43 0.97,2.34l0 1.78 0.28 0c0.3,0 0.58,0.13 0.78,0.33 0.2,0.2 0.32,0.47 0.32,0.77l0 6.42c0,0.3 -0.12,0.58 -0.32,0.78 -0.2,0.2 -0.48,0.32 -0.78,0.32l-7.48 0c-0.3,0 -0.58,-0.12 -0.78,-0.32 -0.2,-0.2 -0.32,-0.48 -0.32,-0.78l0 -6.42c0,-0.3 0.12,-0.57 0.32,-0.77 0.2,-0.2 0.48,-0.33 0.78,-0.33zm3.85 2.11c0.59,0 1.07,0.48 1.07,1.06 0,0.48 -0.32,0.89 -0.76,1.02l0.76 2.47 -2.13 0 0.75 -2.47c-0.43,-0.13 -0.75,-0.54 -0.75,-1.02 0,-0.58 0.48,-1.06 1.06,-1.06zm-2.05 -2.11l4.19 0 0 -1.78c0,-0.58 -0.24,-1.1 -0.62,-1.48 -0.37,-0.38 -0.9,-0.62 -1.48,-0.62 -0.58,0 -1.1,0.24 -1.48,0.62 -0.38,0.38 -0.61,0.9 -0.61,1.48l0 1.78zm5.68 0.58l-7.48 0c-0.14,0 -0.28,0.06 -0.37,0.15 -0.1,0.1 -0.16,0.23 -0.16,0.37l0 6.42c0,0.15 0.06,0.28 0.16,0.37 0.09,0.1 0.23,0.16 0.37,0.16l7.48 0c0.15,0 0.28,-0.06 0.37,-0.16 0.1,-0.09 0.16,-0.22 0.16,-0.37l0 -6.42c0,-0.14 -0.06,-0.27 -0.16,-0.37 -0.09,-0.09 -0.22,-0.15 -0.37,-0.15z"/>
 </g>
</svg>
