<?xml version="1.0" encoding="UTF-8"?>
<!DOCTYPE svg PUBLIC "-//W3C//DTD SVG 1.1//EN" "http://www.w3.org/Graphics/SVG/1.1/DTD/svg11.dtd">
<!-- Creator: CorelDRAW 2020 (64-Bit) -->
<svg xmlns="http://www.w3.org/2000/svg" xml:space="preserve" width="20px" height="28px" version="1.1" style="shape-rendering:geometricPrecision; text-rendering:geometricPrecision; image-rendering:optimizeQuality; fill-rule:evenodd; clip-rule:evenodd"
viewBox="0 0 19.37 27.44"
 xmlns:xlink="http://www.w3.org/1999/xlink"
 xmlns:xodm="http://www.corel.com/coreldraw/odm/2003">
 <defs>
  <style type="text/css">
   <![CDATA[
    .fil0 {fill:#2B2A29;fill-rule:nonzero}
   ]]>
  </style>
 </defs>
 <g id="Слой_x0020_1">
  <metadata id="CorelCorpID_0Corel-Layer"/>
  <path class="fil0" d="M2.2 10.19l0.98 0 0 -3.57c0,-1.83 0.75,-3.48 1.94,-4.68 1.21,-1.2 2.86,-1.94 4.69,-1.94 1.82,0 3.48,0.74 4.68,1.94 1.2,1.2 1.94,2.85 1.94,4.68l0 3.57 0.74 0c0.6,0 1.16,0.25 1.55,0.65 0.41,0.4 0.65,0.95 0.65,1.56l0 12.83c0,0.61 -0.24,1.16 -0.64,1.56 -0.4,0.4 -0.96,0.65 -1.56,0.65l-14.97 0c-0.6,0 -1.15,-0.25 -1.55,-0.65 -0.4,-0.4 -0.65,-0.95 -0.65,-1.56l0 -12.83c0,-0.61 0.25,-1.16 0.65,-1.56 0.4,-0.4 0.95,-0.65 1.55,-0.65zm3.41 0l8.39 0 0 -3.57c0,-1.16 -0.47,-2.2 -1.23,-2.96 -0.76,-0.76 -1.81,-1.23 -2.96,-1.23 -1.16,0 -2.21,0.47 -2.97,1.22 -0.76,0.77 -1.23,1.81 -1.23,2.97l0 3.57zm11.56 1.15l-14.97 0c-0.29,0 -0.55,0.12 -0.74,0.31 -0.19,0.19 -0.31,0.45 -0.31,0.75l0 12.83c0,0.3 0.12,0.56 0.31,0.75 0.19,0.19 0.45,0.31 0.74,0.31l14.97 0c0.29,0 0.56,-0.12 0.75,-0.31 0.19,-0.19 0.31,-0.45 0.31,-0.75l0 -12.83c0,-0.3 -0.12,-0.56 -0.31,-0.75 -0.19,-0.19 -0.46,-0.31 -0.75,-0.31zm-5.35 5.6l-2.14 -5 -2.14 5 1.52 0 0 3.83 -1.52 0 2.14 5 2.14 -5 -1.52 0 0 -3.83 1.52 0z"/>
 </g>
</svg>
