<?xml version="1.0" encoding="UTF-8"?>
<!DOCTYPE svg PUBLIC "-//W3C//DTD SVG 1.1//EN" "http://www.w3.org/Graphics/SVG/1.1/DTD/svg11.dtd">
<!-- Creator: CorelDRAW 2020 (64-Bit) -->
<svg xmlns="http://www.w3.org/2000/svg" xml:space="preserve" width="30px" height="25px" version="1.1" style="shape-rendering:geometricPrecision; text-rendering:geometricPrecision; image-rendering:optimizeQuality; fill-rule:evenodd; clip-rule:evenodd"
viewBox="0 0 12.94 10.67"
 xmlns:xlink="http://www.w3.org/1999/xlink"
 xmlns:xodm="http://www.corel.com/coreldraw/odm/2003">
 <defs>
  <style type="text/css">
   <![CDATA[
    .fil0 {fill:#353535}
   ]]>
  </style>
 </defs>
 <g id="Слой_x0020_1">
  <metadata id="CorelCorpID_0Corel-Layer"/>
  <path id="gest_zoom.svg" class="fil0" d="M4.81 5.66c-0.56,-0.1 -2.32,-0.68 -2.72,0.5 -0.33,1.01 0.75,1.19 1.91,1.64 3.73,1.36 3.96,2.42 4.51,2.87l0.23 -0.13c-0.08,-0.37 -0.78,-1.13 -1.09,-1.33 -0.85,-0.68 -3.47,-1.84 -4.68,-2.29 -1.06,-0.4 -0.33,-1.18 0.76,-1.06 0.88,0.13 1.63,0.68 1.71,0.13 0,-0.23 -0.08,-0.33 -0.25,-0.56l-1.99 -3.5c-0.43,-0.7 -0.63,-1.15 -0.15,-1.43 0.5,-0.28 0.83,0.23 1.13,0.8l1.79 3.08c0.2,0.37 0.15,0.45 0.58,0.45 0.12,-0.78 -1.67,-2.17 -0.76,-2.72 1.06,-0.63 1.36,1.86 2.04,1.94 0.45,-0.48 -0.63,-1.03 -0.58,-1.94 0.63,-0.6 0.88,-0.38 1.26,0.3 0.48,0.88 0.53,1.26 0.98,1.24 0.13,-0.41 -0.18,-0.63 -0.35,-0.99 -0.2,-0.45 -0.03,-0.93 0.53,-0.85 0.4,0.05 0.98,1.31 1.31,1.89 0.75,1.31 0.93,3.24 1.58,4.63l0.38 -0.23c-0.3,-0.93 -1.13,-3.72 -1.43,-4.3 -0.66,-1.34 -1.57,-3.38 -2.82,-1.97 -0.73,-0.68 -1.19,-0.68 -1.82,0.03 -0.53,-0.38 -1.08,-0.43 -1.71,0.25 -0.35,-0.53 -0.88,-1.76 -1.26,-1.96 -0.88,-0.51 -1.89,0.37 -1.51,1.28 0.4,0.96 2.02,3.27 2.42,4.23l0 0 0 0 0 0zm-4.23 -4.3l-0.58 0 0.96 1.93 0.95 -1.93 -0.6 0 0 -0.68 -0.71 0 -0.02 0.68 0 0zm0 4.55l-0.58 0 0.96 -1.94 0.95 1.94 -0.6 0 0 0.68 -0.71 0 -0.02 -0.68 0 0z"/>
 </g>
</svg>
