<?xml version="1.0" encoding="UTF-8"?>
<!DOCTYPE svg PUBLIC "-//W3C//DTD SVG 1.1//EN" "http://www.w3.org/Graphics/SVG/1.1/DTD/svg11.dtd">
<!-- Creator: CorelDRAW 2019 (64-Bit) -->
<svg xmlns="http://www.w3.org/2000/svg" xml:space="preserve" width="124px" height="175px" version="1.1" style="shape-rendering:geometricPrecision; text-rendering:geometricPrecision; image-rendering:optimizeQuality; fill-rule:evenodd; clip-rule:evenodd"
viewBox="0 0 122.33 173.13"
 xmlns:xlink="http://www.w3.org/1999/xlink"
 xmlns:xodm="http://www.corel.com/coreldraw/odm/2003">
 <defs>
  <style type="text/css">
   <![CDATA[
    .str0 {stroke:#2B2A29;stroke-width:7.38;stroke-miterlimit:2.61313}
    .str1 {stroke:#2B2A29;stroke-width:15.47;stroke-miterlimit:2.61313}
    .fil1 {fill:none}
    .fil0 {fill:#FEFEFE}
    .fil2 {fill:#E31E24;fill-rule:nonzero}
   ]]>
  </style>
 </defs>
 <g id="Слой_x0020_1">
  <metadata id="CorelCorpID_0Corel-Layer"/>
  <path class="fil0 str0" d="M15.29 67.84l91.75 0c6.41,0 11.6,4.41 11.6,9.85l0 81.9c0,5.44 -5.19,9.85 -11.6,9.85l-91.75 0c-6.4,0 -11.6,-4.41 -11.6,-9.85l0 -81.9c0,-5.44 5.2,-9.85 11.6,-9.85z"/>
  <path class="fil1 str1" d="M29.66 67.84l0 -26.01c0,-18.98 15.47,-34.1 34.45,-34.1 18.63,0 34.1,15.12 34.1,34.1l0 24.96"/>
 </g>
 <g id="Слой_x0020_1_0">
  <metadata id="CorelCorpID_1Corel-Layer"/>
  <g>
   <path class="fil2" d="M78.12 97.34l-33.9 0 16.95 -30.82 16.95 30.82zm-22.9 45.28l0 -47.95 11.89 0 0 47.95 -11.89 0zm22.9 -2.67l-16.95 30.81 -16.95 -30.81 33.9 0z"/>
  </g>
  <g>
   <path class="fil2" d="M82.47 135.59l0 -33.9 30.81 16.95 -30.81 16.95zm-45.28 -22.89l47.95 0 0 11.88 -47.95 0 0 -11.88zm2.67 22.89l-30.81 -16.95 30.81 -16.95 0 33.9z"/>
  </g>
 </g>
</svg>
