<?xml version="1.0" encoding="UTF-8"?>
<!DOCTYPE svg PUBLIC "-//W3C//DTD SVG 1.1//EN" "http://www.w3.org/Graphics/SVG/1.1/DTD/svg11.dtd">
<!-- Creator: CorelDRAW 2019 (64-Bit) -->
<svg xmlns="http://www.w3.org/2000/svg" xml:space="preserve" width="124px" height="175px" version="1.1" style="shape-rendering:geometricPrecision; text-rendering:geometricPrecision; image-rendering:optimizeQuality; fill-rule:evenodd; clip-rule:evenodd"
viewBox="0 0 123.65 174.99"
 xmlns:xlink="http://www.w3.org/1999/xlink"
 xmlns:xodm="http://www.corel.com/coreldraw/odm/2003">
 <defs>
  <style type="text/css">
   <![CDATA[
    .str0 {stroke:#2B2A29;stroke-width:7.46;stroke-miterlimit:2.61313}
    .str1 {stroke:#2B2A29;stroke-width:15.63;stroke-miterlimit:2.61313}
    .fil1 {fill:none}
    .fil2 {fill:#E31E24}
    .fil0 {fill:#FEFEFE}
    .fnt0 {font-weight:bold;font-size:55.25px;font-family:'Arial'}
   ]]>
  </style>
 </defs>
 <g id="Слой_x0020_1">
  <metadata id="CorelCorpID_0Corel-Layer"/>
  <path class="fil0 str0" d="M15.46 68.57l92.73 0c6.47,0 11.72,4.46 11.72,9.95l0 82.79c0,5.49 -5.25,9.94 -11.72,9.94l-92.73 0.01c-6.48,-0.01 -11.73,-4.46 -11.73,-9.95l0 -82.79c0,-5.49 5.25,-9.95 11.73,-9.95z"/>
  <path class="fil1 str1" d="M29.31 68.57l0 -26.29c0,-19.19 15.64,-34.46 34.82,-34.46 18.83,0 34.47,15.27 34.47,34.46l0 25.23"/>
 </g>
 <g id="Слой_x0020_1_0">
  <metadata id="CorelCorpID_1Corel-Layer"/>
  <g transform="matrix(0.871184 0 0 1 -45.8167 1003.58)">
   <text x="62" y="-850.8"  class="fil2 fnt0">MAX</text>
  </g>
 </g>
</svg>
