<?xml version="1.0" encoding="UTF-8"?>
<!DOCTYPE svg PUBLIC "-//W3C//DTD SVG 1.1//EN" "http://www.w3.org/Graphics/SVG/1.1/DTD/svg11.dtd">
<!-- Creator: CorelDRAW 2020 (64-Bit) -->
<svg xmlns="http://www.w3.org/2000/svg" xml:space="preserve" width="36px" height="39px" version="1.1" style="shape-rendering:geometricPrecision; text-rendering:geometricPrecision; image-rendering:optimizeQuality; fill-rule:evenodd; clip-rule:evenodd"
viewBox="0 0 2.59 2.81"
 xmlns:xlink="http://www.w3.org/1999/xlink"
 xmlns:xodm="http://www.corel.com/coreldraw/odm/2003">
 <defs>
  <style type="text/css">
   <![CDATA[
    .str0 {stroke:#D5BC45;stroke-width:0.09;stroke-linecap:round;stroke-linejoin:round;stroke-miterlimit:22.9256}
    .fil105 {fill:none}
    .fil0 {fill:#B98A05}
    .fil1 {fill:#B98B05}
    .fil2 {fill:#BA8B05}
    .fil3 {fill:#BA8C05}
    .fil4 {fill:#BB8C05}
    .fil5 {fill:#BC8D05}
    .fil6 {fill:#BD8D05}
    .fil7 {fill:#BD8E05}
    .fil8 {fill:#BE8E05}
    .fil9 {fill:#BE8F05}
    .fil10 {fill:#BF8F05}
    .fil11 {fill:#BF9005}
    .fil12 {fill:#C09005}
    .fil13 {fill:#C19105}
    .fil14 {fill:#C29105}
    .fil15 {fill:#C29205}
    .fil16 {fill:#C39205}
    .fil17 {fill:#C39206}
    .fil18 {fill:#C39306}
    .fil19 {fill:#C49306}
    .fil20 {fill:#C59406}
    .fil21 {fill:#C69406}
    .fil22 {fill:#C69506}
    .fil23 {fill:#C79506}
    .fil24 {fill:#C79606}
    .fil25 {fill:#C89606}
    .fil26 {fill:#C99706}
    .fil27 {fill:#CA9706}
    .fil28 {fill:#CA9806}
    .fil29 {fill:#CB9806}
    .fil30 {fill:#CB9906}
    .fil31 {fill:#CC9906}
    .fil32 {fill:#CD9906}
    .fil33 {fill:#CD9A06}
    .fil34 {fill:#CE9A06}
    .fil35 {fill:#CE9B06}
    .fil36 {fill:#CF9B06}
    .fil37 {fill:#CF9C06}
    .fil38 {fill:#D09C06}
    .fil39 {fill:#D19C06}
    .fil40 {fill:#D19D06}
    .fil41 {fill:#D29D06}
    .fil42 {fill:#D29E06}
    .fil43 {fill:#D39E06}
    .fil44 {fill:#D49F06}
    .fil45 {fill:#D5A006}
    .fil46 {fill:#D6A006}
    .fil47 {fill:#D6A106}
    .fil48 {fill:#D7A106}
    .fil49 {fill:#D7A206}
    .fil50 {fill:#D8A206}
    .fil51 {fill:#D9A206}
    .fil52 {fill:#D9A306}
    .fil53 {fill:#DAA306}
    .fil54 {fill:#DAA406}
    .fil55 {fill:#DBA406}
    .fil56 {fill:#DBA506}
    .fil57 {fill:#DCA506}
    .fil58 {fill:#DDA506}
    .fil59 {fill:#DDA606}
    .fil60 {fill:#DEA606}
    .fil61 {fill:#DEA706}
    .fil62 {fill:#DFA706}
    .fil63 {fill:#E0A806}
    .fil64 {fill:#E1A906}
    .fil65 {fill:#E2A906}
    .fil66 {fill:#E2AA06}
    .fil67 {fill:#E3AA06}
    .fil68 {fill:#E3AB06}
    .fil69 {fill:#E4AB06}
    .fil70 {fill:#E5AB06}
    .fil71 {fill:#E5AC06}
    .fil72 {fill:#E6AC06}
    .fil73 {fill:#E6AD06}
    .fil74 {fill:#E6AD07}
    .fil75 {fill:#E7AD07}
    .fil76 {fill:#E8AE07}
    .fil77 {fill:#E9AF07}
    .fil78 {fill:#EAAF07}
    .fil79 {fill:#EAB007}
    .fil80 {fill:#EBB007}
    .fil81 {fill:#EBB107}
    .fil82 {fill:#ECB107}
    .fil83 {fill:#EDB107}
    .fil84 {fill:#EDB207}
    .fil85 {fill:#EEB207}
    .fil86 {fill:#EEB307}
    .fil87 {fill:#EFB307}
    .fil88 {fill:#EFB407}
    .fil89 {fill:#F0B407}
    .fil90 {fill:#F1B407}
    .fil91 {fill:#F1B507}
    .fil92 {fill:#F2B507}
    .fil93 {fill:#F2B607}
    .fil94 {fill:#F3B607}
    .fil95 {fill:#F3B707}
    .fil96 {fill:#F4B707}
    .fil97 {fill:#F5B707}
    .fil98 {fill:#F5B807}
    .fil99 {fill:#F6B807}
    .fil100 {fill:#F6B907}
    .fil101 {fill:#F7B907}
    .fil102 {fill:#F7BA07}
    .fil103 {fill:#F8BA07}
    .fil104 {fill:#FFEB54}
    .fil107 {fill:#936035}
    .fil106 {fill:#FF8F00}
   ]]>
  </style>
    <clipPath id="id0">
     <path d="M0.09 0.05l1.48 0 0.12 0.27 0.5 -0.01 0.06 0.09 -0.04 1.7 -2.16 0.33 0 -2.26c0.01,-0.1 -0.03,-0.12 0.04,-0.12z"/>
    </clipPath>
 </defs>
 <g id="Слой_x0020_1">
  <metadata id="CorelCorpID_0Corel-Layer"/>
  <g>
   <g style="clip-path:url(#id0)">
    <polygon class="fil0" points="0.03,2.43 0.03,2.43 2.26,2.42 2.26,2.43 "/>
    <polygon id="1" class="fil1" points="0.03,2.43 0.03,2.42 2.26,2.41 2.26,2.42 "/>
    <polygon id="2" class="fil1" points="0.03,2.43 0.03,2.42 2.26,2.41 2.26,2.42 "/>
    <polygon id="3" class="fil2" points="0.03,2.42 0.03,2.41 2.26,2.4 2.26,2.41 "/>
    <polygon id="4" class="fil2" points="0.03,2.41 0.03,2.4 2.26,2.39 2.26,2.4 "/>
    <polygon id="5" class="fil3" points="0.03,2.4 0.03,2.39 2.26,2.38 2.26,2.4 "/>
    <polygon id="6" class="fil4" points="0.03,2.4 0.03,2.39 2.26,2.38 2.26,2.39 "/>
    <polygon id="7" class="fil4" points="0.03,2.39 0.03,2.38 2.26,2.37 2.26,2.38 "/>
    <polygon id="8" class="fil4" points="0.03,2.38 0.03,2.37 2.26,2.36 2.26,2.37 "/>
    <polygon id="9" class="fil5" points="0.03,2.37 0.03,2.36 2.26,2.35 2.26,2.37 "/>
    <polygon id="10" class="fil5" points="0.03,2.37 0.03,2.36 2.26,2.35 2.26,2.36 "/>
    <polygon id="11" class="fil5" points="0.03,2.36 0.03,2.35 2.26,2.34 2.26,2.35 "/>
    <polygon id="12" class="fil6" points="0.03,2.35 0.03,2.34 2.26,2.33 2.26,2.34 "/>
    <polygon id="13" class="fil7" points="0.03,2.35 0.03,2.33 2.26,2.33 2.26,2.34 "/>
    <polygon id="14" class="fil7" points="0.03,2.34 0.03,2.33 2.26,2.32 2.26,2.33 "/>
    <polygon id="15" class="fil7" points="0.03,2.33 0.03,2.32 2.26,2.31 2.26,2.32 "/>
    <polygon id="16" class="fil8" points="0.03,2.32 0.03,2.31 2.26,2.3 2.26,2.31 "/>
    <polygon id="17" class="fil9" points="0.03,2.32 0.03,2.3 2.26,2.3 2.26,2.31 "/>
    <polygon id="18" class="fil9" points="0.03,2.31 0.03,2.3 2.26,2.29 2.26,2.3 "/>
    <polygon id="19" class="fil10" points="0.03,2.3 0.03,2.29 2.26,2.28 2.26,2.29 "/>
    <polygon id="20" class="fil10" points="0.03,2.29 0.03,2.28 2.26,2.27 2.26,2.28 "/>
    <polygon id="21" class="fil11" points="0.03,2.29 0.03,2.28 2.26,2.27 2.26,2.28 "/>
    <polygon id="22" class="fil12" points="0.03,2.28 0.03,2.27 2.26,2.26 2.26,2.27 "/>
    <polygon id="23" class="fil12" points="0.03,2.27 0.03,2.26 2.26,2.25 2.26,2.26 "/>
    <polygon id="24" class="fil12" points="0.03,2.26 0.03,2.25 2.26,2.24 2.26,2.26 "/>
    <polygon id="25" class="fil13" points="0.03,2.26 0.03,2.25 2.26,2.24 2.26,2.25 "/>
    <polygon id="26" class="fil13" points="0.03,2.25 0.03,2.24 2.26,2.23 2.26,2.24 "/>
    <polygon id="27" class="fil13" points="0.03,2.24 0.03,2.23 2.26,2.22 2.26,2.23 "/>
    <polygon id="28" class="fil14" points="0.03,2.23 0.03,2.22 2.26,2.21 2.26,2.23 "/>
    <polygon id="29" class="fil14" points="0.03,2.23 0.03,2.22 2.26,2.21 2.26,2.22 "/>
    <polygon id="30" class="fil15" points="0.03,2.22 0.03,2.21 2.26,2.2 2.26,2.21 "/>
    <polygon id="31" class="fil16" points="0.03,2.21 0.03,2.2 2.26,2.19 2.26,2.2 "/>
    <polygon id="32" class="fil17" points="0.03,2.21 0.03,2.19 2.26,2.19 2.26,2.2 "/>
    <polygon id="33" class="fil17" points="0.03,2.2 0.03,2.19 2.26,2.18 2.26,2.19 "/>
    <polygon id="34" class="fil18" points="0.03,2.19 0.03,2.18 2.26,2.17 2.26,2.18 "/>
    <polygon id="35" class="fil19" points="0.03,2.18 0.03,2.17 2.26,2.16 2.26,2.17 "/>
    <polygon id="36" class="fil19" points="0.03,2.18 0.03,2.16 2.26,2.16 2.26,2.17 "/>
    <polygon id="37" class="fil19" points="0.03,2.17 0.03,2.16 2.26,2.15 2.26,2.16 "/>
    <polygon id="38" class="fil20" points="0.03,2.16 0.03,2.15 2.26,2.14 2.26,2.15 "/>
    <polygon id="39" class="fil20" points="0.03,2.15 0.03,2.14 2.26,2.13 2.26,2.14 "/>
    <polygon id="40" class="fil20" points="0.03,2.15 0.03,2.14 2.26,2.13 2.26,2.14 "/>
    <polygon id="41" class="fil21" points="0.03,2.14 0.03,2.13 2.26,2.12 2.26,2.13 "/>
    <polygon id="42" class="fil21" points="0.03,2.13 0.03,2.12 2.26,2.11 2.26,2.12 "/>
    <polygon id="43" class="fil22" points="0.03,2.12 0.03,2.11 2.26,2.1 2.26,2.12 "/>
    <polygon id="44" class="fil23" points="0.03,2.12 0.03,2.11 2.26,2.1 2.26,2.11 "/>
    <polygon id="45" class="fil23" points="0.03,2.11 0.03,2.1 2.26,2.09 2.26,2.1 "/>
    <polygon id="46" class="fil23" points="0.03,2.1 0.03,2.09 2.26,2.08 2.26,2.09 "/>
    <polygon id="47" class="fil24" points="0.03,2.09 0.03,2.08 2.26,2.07 2.26,2.09 "/>
    <polygon id="48" class="fil25" points="0.03,2.09 0.03,2.08 2.26,2.07 2.26,2.08 "/>
    <polygon id="49" class="fil25" points="0.03,2.08 0.03,2.07 2.26,2.06 2.26,2.07 "/>
    <polygon id="50" class="fil25" points="0.03,2.07 0.03,2.06 2.26,2.05 2.26,2.06 "/>
    <polygon id="51" class="fil26" points="0.03,2.07 0.03,2.05 2.26,2.05 2.26,2.06 "/>
    <polygon id="52" class="fil26" points="0.03,2.06 0.03,2.05 2.26,2.04 2.26,2.05 "/>
    <polygon id="53" class="fil26" points="0.03,2.05 0.03,2.04 2.26,2.03 2.26,2.04 "/>
    <polygon id="54" class="fil27" points="0.03,2.04 0.03,2.03 2.26,2.02 2.26,2.03 "/>
    <polygon id="55" class="fil27" points="0.03,2.04 0.03,2.02 2.26,2.02 2.26,2.03 "/>
    <polygon id="56" class="fil28" points="0.03,2.03 0.03,2.02 2.26,2.01 2.26,2.02 "/>
    <polygon id="57" class="fil28" points="0.03,2.02 0.03,2.01 2.26,2 2.26,2.01 "/>
    <polygon id="58" class="fil29" points="0.03,2.01 0.03,2 2.26,1.99 2.26,2 "/>
    <polygon id="59" class="fil29" points="0.03,2.01 0.03,2 2.26,1.99 2.26,2 "/>
    <polygon id="60" class="fil30" points="0.03,2 0.03,1.99 2.26,1.98 2.26,1.99 "/>
    <polygon id="61" class="fil31" points="0.03,1.99 0.03,1.98 2.26,1.97 2.26,1.98 "/>
    <polygon id="62" class="fil31" points="0.03,1.98 0.03,1.97 2.26,1.96 2.26,1.98 "/>
    <polygon id="63" class="fil31" points="0.03,1.98 0.03,1.97 2.26,1.96 2.26,1.97 "/>
    <polygon id="64" class="fil32" points="0.03,1.97 0.03,1.96 2.26,1.95 2.26,1.96 "/>
    <polygon id="65" class="fil33" points="0.03,1.96 0.03,1.95 2.26,1.94 2.26,1.95 "/>
    <polygon id="66" class="fil33" points="0.03,1.95 0.03,1.94 2.26,1.93 2.26,1.95 "/>
    <polygon id="67" class="fil33" points="0.03,1.95 0.03,1.94 2.26,1.93 2.26,1.94 "/>
    <polygon id="68" class="fil34" points="0.03,1.94 0.03,1.93 2.26,1.92 2.26,1.93 "/>
    <polygon id="69" class="fil34" points="0.03,1.93 0.03,1.92 2.26,1.91 2.26,1.92 "/>
    <polygon id="70" class="fil35" points="0.03,1.93 0.03,1.91 2.26,1.91 2.26,1.92 "/>
    <polygon id="71" class="fil36" points="0.03,1.92 0.03,1.91 2.26,1.9 2.26,1.91 "/>
    <polygon id="72" class="fil36" points="0.03,1.91 0.03,1.9 2.26,1.89 2.26,1.9 "/>
    <polygon id="73" class="fil36" points="0.03,1.9 0.03,1.89 2.26,1.88 2.26,1.89 "/>
    <polygon id="74" class="fil37" points="0.03,1.9 0.03,1.88 2.26,1.88 2.26,1.89 "/>
    <polygon id="75" class="fil38" points="0.03,1.89 0.03,1.88 2.26,1.87 2.26,1.88 "/>
    <polygon id="76" class="fil38" points="0.03,1.88 0.03,1.87 2.26,1.86 2.26,1.87 "/>
    <polygon id="77" class="fil38" points="0.03,1.87 0.03,1.86 2.26,1.85 2.26,1.86 "/>
    <polygon id="78" class="fil39" points="0.03,1.87 0.03,1.85 2.26,1.85 2.26,1.86 "/>
    <polygon id="79" class="fil40" points="0.03,1.86 0.03,1.85 2.26,1.84 2.26,1.85 "/>
    <polygon id="80" class="fil40" points="0.03,1.85 0.03,1.84 2.26,1.83 2.26,1.84 "/>
    <polygon id="81" class="fil40" points="0.03,1.84 0.03,1.83 2.26,1.82 2.26,1.83 "/>
    <polygon id="82" class="fil41" points="0.03,1.84 0.03,1.83 2.26,1.82 2.26,1.83 "/>
    <polygon id="83" class="fil41" points="0.03,1.83 0.03,1.82 2.26,1.81 2.26,1.82 "/>
    <polygon id="84" class="fil42" points="0.03,1.82 0.03,1.81 2.26,1.8 2.26,1.81 "/>
    <polygon id="85" class="fil43" points="0.03,1.81 0.03,1.8 2.26,1.79 2.26,1.81 "/>
    <polygon id="86" class="fil43" points="0.03,1.81 0.03,1.8 2.26,1.79 2.26,1.8 "/>
    <polygon id="87" class="fil43" points="0.03,1.8 0.03,1.79 2.26,1.78 2.26,1.79 "/>
    <polygon id="88" class="fil43" points="0.03,1.79 0.03,1.78 2.26,1.77 2.26,1.78 "/>
    <polygon id="89" class="fil44" points="0.03,1.78 0.03,1.77 2.26,1.76 2.26,1.78 "/>
    <polygon id="90" class="fil44" points="0.03,1.78 0.03,1.77 2.26,1.76 2.26,1.77 "/>
    <polygon id="91" class="fil44" points="0.03,1.77 0.03,1.76 2.26,1.75 2.26,1.76 "/>
    <polygon id="92" class="fil44" points="0.03,1.76 0.03,1.75 2.26,1.74 2.26,1.75 "/>
    <polygon id="93" class="fil45" points="0.03,1.76 0.03,1.74 2.26,1.74 2.26,1.75 "/>
    <polygon id="94" class="fil45" points="0.03,1.75 0.03,1.74 2.26,1.73 2.26,1.74 "/>
    <polygon id="95" class="fil45" points="0.03,1.74 0.03,1.73 2.26,1.72 2.26,1.73 "/>
    <polygon id="96" class="fil45" points="0.03,1.73 0.03,1.72 2.26,1.71 2.26,1.72 "/>
    <polygon id="97" class="fil46" points="0.03,1.73 0.03,1.71 2.26,1.71 2.26,1.72 "/>
    <polygon id="98" class="fil47" points="0.03,1.72 0.03,1.71 2.26,1.7 2.26,1.71 "/>
    <polygon id="99" class="fil47" points="0.03,1.71 0.03,1.7 2.26,1.69 2.26,1.7 "/>
    <polygon id="100" class="fil48" points="0.03,1.7 0.03,1.69 2.26,1.68 2.26,1.69 "/>
    <polygon id="101" class="fil48" points="0.03,1.7 0.03,1.69 2.26,1.68 2.26,1.69 "/>
    <polygon id="102" class="fil48" points="0.03,1.69 0.03,1.68 2.25,1.67 2.26,1.68 "/>
    <polygon id="103" class="fil49" points="0.03,1.68 0.03,1.67 2.25,1.66 2.25,1.67 "/>
    <polygon id="104" class="fil50" points="0.03,1.67 0.03,1.66 2.25,1.65 2.25,1.67 "/>
    <polygon id="105" class="fil50" points="0.03,1.67 0.03,1.66 2.25,1.65 2.25,1.66 "/>
    <polygon id="106" class="fil50" points="0.03,1.66 0.03,1.65 2.25,1.64 2.25,1.65 "/>
    <polygon id="107" class="fil50" points="0.03,1.65 0.03,1.64 2.25,1.63 2.25,1.64 "/>
    <polygon id="108" class="fil51" points="0.03,1.64 0.03,1.63 2.25,1.62 2.25,1.64 "/>
    <polygon id="109" class="fil52" points="0.03,1.64 0.03,1.63 2.25,1.62 2.25,1.63 "/>
    <polygon id="110" class="fil52" points="0.03,1.63 0.03,1.62 2.25,1.61 2.25,1.62 "/>
    <polygon id="111" class="fil52" points="0.03,1.62 0.02,1.61 2.25,1.6 2.25,1.61 "/>
    <polygon id="112" class="fil53" points="0.03,1.62 0.02,1.6 2.25,1.6 2.25,1.61 "/>
    <polygon id="113" class="fil53" points="0.02,1.61 0.02,1.6 2.25,1.59 2.25,1.6 "/>
    <polygon id="114" class="fil54" points="0.02,1.6 0.02,1.59 2.25,1.58 2.25,1.59 "/>
    <polygon id="115" class="fil54" points="0.02,1.59 0.02,1.58 2.25,1.57 2.25,1.58 "/>
    <polygon id="116" class="fil55" points="0.02,1.59 0.02,1.57 2.25,1.57 2.25,1.58 "/>
    <polygon id="117" class="fil55" points="0.02,1.58 0.02,1.57 2.25,1.56 2.25,1.57 "/>
    <polygon id="118" class="fil55" points="0.02,1.57 0.02,1.56 2.25,1.55 2.25,1.56 "/>
    <polygon id="119" class="fil56" points="0.02,1.56 0.02,1.55 2.25,1.54 2.25,1.55 "/>
    <polygon id="120" class="fil57" points="0.02,1.56 0.02,1.55 2.25,1.54 2.25,1.55 "/>
    <polygon id="121" class="fil57" points="0.02,1.55 0.02,1.54 2.25,1.53 2.25,1.54 "/>
    <polygon id="122" class="fil57" points="0.02,1.54 0.02,1.53 2.25,1.52 2.25,1.53 "/>
    <polygon id="123" class="fil57" points="0.02,1.53 0.02,1.52 2.25,1.51 2.25,1.53 "/>
    <polygon id="124" class="fil58" points="0.02,1.53 0.02,1.52 2.25,1.51 2.25,1.52 "/>
    <polygon id="125" class="fil59" points="0.02,1.52 0.02,1.51 2.25,1.5 2.25,1.51 "/>
    <polygon id="126" class="fil59" points="0.02,1.51 0.02,1.5 2.25,1.49 2.25,1.5 "/>
    <polygon id="127" class="fil59" points="0.02,1.5 0.02,1.49 2.25,1.48 2.25,1.5 "/>
    <polygon id="128" class="fil60" points="0.02,1.5 0.02,1.49 2.25,1.48 2.25,1.49 "/>
    <polygon id="129" class="fil60" points="0.02,1.49 0.02,1.48 2.25,1.47 2.25,1.48 "/>
    <polygon id="130" class="fil61" points="0.02,1.48 0.02,1.47 2.25,1.46 2.25,1.47 "/>
    <polygon id="131" class="fil61" points="0.02,1.48 0.02,1.46 2.25,1.46 2.25,1.47 "/>
    <polygon id="132" class="fil62" points="0.02,1.47 0.02,1.46 2.25,1.45 2.25,1.46 "/>
    <polygon id="133" class="fil62" points="0.02,1.46 0.02,1.45 2.25,1.44 2.25,1.45 "/>
    <polygon id="134" class="fil62" points="0.02,1.45 0.02,1.44 2.25,1.43 2.25,1.44 "/>
    <polygon id="135" class="fil62" points="0.02,1.45 0.02,1.43 2.25,1.43 2.25,1.44 "/>
    <polygon id="136" class="fil63" points="0.02,1.44 0.02,1.43 2.25,1.42 2.25,1.43 "/>
    <polygon id="137" class="fil63" points="0.02,1.43 0.02,1.42 2.25,1.41 2.25,1.42 "/>
    <polygon id="138" class="fil63" points="0.02,1.42 0.02,1.41 2.25,1.4 2.25,1.41 "/>
    <polygon id="139" class="fil63" points="0.02,1.42 0.02,1.41 2.25,1.4 2.25,1.41 "/>
    <polygon id="140" class="fil63" points="0.02,1.41 0.02,1.4 2.25,1.39 2.25,1.4 "/>
    <polygon id="141" class="fil64" points="0.02,1.4 0.02,1.39 2.25,1.38 2.25,1.39 "/>
    <polygon id="142" class="fil64" points="0.02,1.39 0.02,1.38 2.25,1.37 2.25,1.39 "/>
    <polygon id="143" class="fil64" points="0.02,1.39 0.02,1.38 2.25,1.37 2.25,1.38 "/>
    <polygon id="144" class="fil64" points="0.02,1.38 0.02,1.37 2.25,1.36 2.25,1.37 "/>
    <polygon id="145" class="fil65" points="0.02,1.37 0.02,1.36 2.25,1.35 2.25,1.36 "/>
    <polygon id="146" class="fil65" points="0.02,1.36 0.02,1.35 2.25,1.34 2.25,1.36 "/>
    <polygon id="147" class="fil66" points="0.02,1.36 0.02,1.35 2.25,1.34 2.25,1.35 "/>
    <polygon id="148" class="fil66" points="0.02,1.35 0.02,1.34 2.25,1.33 2.25,1.34 "/>
    <polygon id="149" class="fil66" points="0.02,1.34 0.02,1.33 2.25,1.32 2.25,1.33 "/>
    <polygon id="150" class="fil67" points="0.02,1.34 0.02,1.32 2.25,1.32 2.25,1.33 "/>
    <polygon id="151" class="fil67" points="0.02,1.33 0.02,1.32 2.25,1.31 2.25,1.32 "/>
    <polygon id="152" class="fil67" points="0.02,1.32 0.02,1.31 2.25,1.3 2.25,1.31 "/>
    <polygon id="153" class="fil68" points="0.02,1.31 0.02,1.3 2.25,1.29 2.25,1.3 "/>
    <polygon id="154" class="fil69" points="0.02,1.31 0.02,1.29 2.25,1.29 2.25,1.3 "/>
    <polygon id="155" class="fil69" points="0.02,1.3 0.02,1.29 2.25,1.28 2.25,1.29 "/>
    <polygon id="156" class="fil69" points="0.02,1.29 0.02,1.28 2.25,1.27 2.25,1.28 "/>
    <polygon id="157" class="fil69" points="0.02,1.28 0.02,1.27 2.25,1.26 2.25,1.27 "/>
    <polygon id="158" class="fil69" points="0.02,1.28 0.02,1.26 2.25,1.26 2.25,1.27 "/>
    <polygon id="159" class="fil70" points="0.02,1.27 0.02,1.26 2.25,1.25 2.25,1.26 "/>
    <polygon id="160" class="fil71" points="0.02,1.26 0.02,1.25 2.25,1.24 2.25,1.25 "/>
    <polygon id="161" class="fil71" points="0.02,1.25 0.02,1.24 2.25,1.23 2.25,1.24 "/>
    <polygon id="162" class="fil71" points="0.02,1.25 0.02,1.24 2.25,1.23 2.25,1.24 "/>
    <polygon id="163" class="fil71" points="0.02,1.24 0.02,1.23 2.25,1.22 2.25,1.23 "/>
    <polygon id="164" class="fil72" points="0.02,1.23 0.02,1.22 2.25,1.21 2.25,1.22 "/>
    <polygon id="165" class="fil72" points="0.02,1.22 0.02,1.21 2.25,1.2 2.25,1.22 "/>
    <polygon id="166" class="fil73" points="0.02,1.22 0.02,1.21 2.25,1.2 2.25,1.21 "/>
    <polygon id="167" class="fil74" points="0.02,1.21 0.02,1.2 2.25,1.19 2.25,1.2 "/>
    <polygon id="168" class="fil75" points="0.02,1.2 0.02,1.19 2.25,1.18 2.25,1.19 "/>
    <polygon id="169" class="fil75" points="0.02,1.19 0.02,1.18 2.25,1.17 2.25,1.19 "/>
    <polygon id="170" class="fil75" points="0.02,1.19 0.02,1.18 2.25,1.17 2.25,1.18 "/>
    <polygon id="171" class="fil75" points="0.02,1.18 0.02,1.17 2.25,1.16 2.25,1.17 "/>
    <polygon id="172" class="fil75" points="0.02,1.17 0.02,1.16 2.25,1.15 2.25,1.16 "/>
    <polygon id="173" class="fil76" points="0.02,1.17 0.02,1.15 2.25,1.15 2.25,1.16 "/>
    <polygon id="174" class="fil76" points="0.02,1.16 0.02,1.15 2.25,1.14 2.25,1.15 "/>
    <polygon id="175" class="fil76" points="0.02,1.15 0.02,1.14 2.25,1.13 2.25,1.14 "/>
    <polygon id="176" class="fil76" points="0.02,1.14 0.02,1.13 2.25,1.12 2.25,1.13 "/>
    <polygon id="177" class="fil76" points="0.02,1.14 0.02,1.12 2.25,1.12 2.25,1.13 "/>
    <polygon id="178" class="fil76" points="0.02,1.13 0.02,1.12 2.25,1.11 2.25,1.12 "/>
    <polygon id="179" class="fil77" points="0.02,1.12 0.02,1.11 2.25,1.1 2.25,1.11 "/>
    <polygon id="180" class="fil77" points="0.02,1.11 0.02,1.1 2.25,1.09 2.25,1.1 "/>
    <polygon id="181" class="fil77" points="0.02,1.11 0.02,1.1 2.25,1.09 2.25,1.1 "/>
    <polygon id="182" class="fil77" points="0.02,1.1 0.02,1.09 2.25,1.08 2.25,1.09 "/>
    <polygon id="183" class="fil77" points="0.02,1.09 0.02,1.08 2.25,1.07 2.25,1.08 "/>
    <polygon id="184" class="fil78" points="0.02,1.08 0.02,1.07 2.25,1.06 2.25,1.08 "/>
    <polygon id="185" class="fil78" points="0.02,1.08 0.02,1.07 2.25,1.06 2.25,1.07 "/>
    <polygon id="186" class="fil79" points="0.02,1.07 0.02,1.06 2.25,1.05 2.25,1.06 "/>
    <polygon id="187" class="fil79" points="0.02,1.06 0.02,1.05 2.25,1.04 2.25,1.05 "/>
    <polygon id="188" class="fil79" points="0.02,1.05 0.02,1.04 2.25,1.03 2.25,1.05 "/>
    <polygon id="189" class="fil80" points="0.02,1.05 0.02,1.04 2.25,1.03 2.25,1.04 "/>
    <polygon id="190" class="fil80" points="0.02,1.04 0.02,1.03 2.25,1.02 2.25,1.03 "/>
    <polygon id="191" class="fil80" points="0.02,1.03 0.02,1.02 2.25,1.01 2.25,1.02 "/>
    <polygon id="192" class="fil80" points="0.02,1.03 0.02,1.01 2.25,1.01 2.25,1.02 "/>
    <polygon id="193" class="fil80" points="0.02,1.02 0.02,1.01 2.25,1 2.25,1.01 "/>
    <polygon id="194" class="fil81" points="0.02,1.01 0.02,1 2.25,0.99 2.25,1 "/>
    <polygon id="195" class="fil82" points="0.02,1 0.02,0.99 2.25,0.98 2.25,0.99 "/>
    <polygon id="196" class="fil82" points="0.02,1 0.02,0.98 2.25,0.98 2.25,0.99 "/>
    <polygon id="197" class="fil82" points="0.02,0.99 0.02,0.98 2.25,0.97 2.25,0.98 "/>
    <polygon id="198" class="fil82" points="0.02,0.98 0.02,0.97 2.25,0.96 2.25,0.97 "/>
    <polygon id="199" class="fil82" points="0.02,0.97 0.02,0.96 2.25,0.95 2.25,0.96 "/>
    <polygon id="200" class="fil82" points="0.02,0.97 0.02,0.96 2.25,0.95 2.25,0.96 "/>
    <polygon id="201" class="fil83" points="0.02,0.96 0.02,0.95 2.25,0.94 2.25,0.95 "/>
    <polygon id="202" class="fil84" points="0.02,0.95 0.02,0.94 2.25,0.93 2.25,0.94 "/>
    <polygon id="203" class="fil84" points="0.02,0.94 0.02,0.93 2.25,0.92 2.25,0.94 "/>
    <polygon id="204" class="fil84" points="0.02,0.94 0.02,0.93 2.25,0.92 2.25,0.93 "/>
    <polygon id="205" class="fil84" points="0.02,0.93 0.02,0.92 2.25,0.91 2.25,0.92 "/>
    <polygon id="206" class="fil84" points="0.02,0.92 0.02,0.91 2.25,0.9 2.25,0.91 "/>
    <polygon id="207" class="fil85" points="0.02,0.91 0.02,0.9 2.25,0.89 2.25,0.91 "/>
    <polygon id="208" class="fil85" points="0.02,0.91 0.02,0.9 2.25,0.89 2.25,0.9 "/>
    <polygon id="209" class="fil85" points="0.02,0.9 0.02,0.89 2.25,0.88 2.25,0.89 "/>
    <polygon id="210" class="fil86" points="0.02,0.89 0.02,0.88 2.25,0.87 2.25,0.88 "/>
    <polygon id="211" class="fil86" points="0.02,0.89 0.02,0.87 2.25,0.87 2.25,0.88 "/>
    <polygon id="212" class="fil86" points="0.02,0.88 0.02,0.87 2.25,0.86 2.25,0.87 "/>
    <polygon id="213" class="fil87" points="0.02,0.87 0.02,0.86 2.25,0.85 2.25,0.86 "/>
    <polygon id="214" class="fil87" points="0.02,0.86 0.02,0.85 2.25,0.84 2.25,0.85 "/>
    <polygon id="215" class="fil87" points="0.02,0.86 0.02,0.84 2.25,0.84 2.25,0.85 "/>
    <polygon id="216" class="fil87" points="0.02,0.85 0.02,0.84 2.25,0.83 2.25,0.84 "/>
    <polygon id="217" class="fil87" points="0.02,0.84 0.02,0.83 2.25,0.82 2.25,0.83 "/>
    <polygon id="218" class="fil87" points="0.02,0.83 0.02,0.82 2.25,0.81 2.25,0.82 "/>
    <polygon id="219" class="fil88" points="0.02,0.83 0.02,0.82 2.25,0.81 2.25,0.82 "/>
    <polygon id="220" class="fil89" points="0.02,0.82 0.02,0.81 2.25,0.8 2.25,0.81 "/>
    <polygon id="221" class="fil89" points="0.02,0.81 0.02,0.8 2.25,0.79 2.25,0.8 "/>
    <polygon id="222" class="fil89" points="0.02,0.8 0.02,0.79 2.25,0.78 2.25,0.8 "/>
    <polygon id="223" class="fil89" points="0.02,0.8 0.02,0.79 2.25,0.78 2.25,0.79 "/>
    <polygon id="224" class="fil89" points="0.02,0.79 0.02,0.78 2.25,0.77 2.25,0.78 "/>
    <polygon id="225" class="fil89" points="0.02,0.78 0.02,0.77 2.25,0.76 2.25,0.77 "/>
    <polygon id="226" class="fil89" points="0.02,0.77 0.02,0.76 2.25,0.75 2.25,0.77 "/>
    <polygon id="227" class="fil90" points="0.02,0.77 0.02,0.76 2.25,0.75 2.25,0.76 "/>
    <polygon id="228" class="fil91" points="0.02,0.76 0.02,0.75 2.25,0.74 2.25,0.75 "/>
    <polygon id="229" class="fil91" points="0.02,0.75 0.02,0.74 2.25,0.73 2.25,0.74 "/>
    <polygon id="230" class="fil91" points="0.02,0.75 0.02,0.73 2.25,0.73 2.25,0.74 "/>
    <polygon id="231" class="fil91" points="0.02,0.74 0.02,0.73 2.25,0.72 2.25,0.73 "/>
    <polygon id="232" class="fil91" points="0.02,0.73 0.02,0.72 2.25,0.71 2.25,0.72 "/>
    <polygon id="233" class="fil91" points="0.02,0.72 0.02,0.71 2.25,0.7 2.25,0.71 "/>
    <polygon id="234" class="fil92" points="0.02,0.72 0.02,0.7 2.25,0.7 2.25,0.71 "/>
    <polygon id="235" class="fil92" points="0.02,0.71 0.02,0.7 2.25,0.69 2.25,0.7 "/>
    <polygon id="236" class="fil92" points="0.02,0.7 0.02,0.69 2.25,0.68 2.25,0.69 "/>
    <polygon id="237" class="fil92" points="0.02,0.69 0.02,0.68 2.25,0.67 2.25,0.68 "/>
    <polygon id="238" class="fil93" points="0.02,0.69 0.02,0.67 2.25,0.67 2.25,0.68 "/>
    <polygon id="239" class="fil93" points="0.02,0.68 0.02,0.67 2.25,0.66 2.25,0.67 "/>
    <polygon id="240" class="fil93" points="0.02,0.67 0.02,0.66 2.25,0.65 2.25,0.66 "/>
    <polygon id="241" class="fil93" points="0.02,0.66 0.02,0.65 2.25,0.64 2.25,0.66 "/>
    <polygon id="242" class="fil94" points="0.02,0.66 0.02,0.65 2.25,0.64 2.25,0.65 "/>
    <polygon id="243" class="fil94" points="0.02,0.65 0.02,0.64 2.25,0.63 2.25,0.64 "/>
    <polygon id="244" class="fil94" points="0.02,0.64 0.02,0.63 2.25,0.62 2.25,0.63 "/>
    <polygon id="245" class="fil94" points="0.02,0.63 0.02,0.62 2.25,0.61 2.25,0.63 "/>
    <polygon id="246" class="fil94" points="0.02,0.63 0.02,0.62 2.25,0.61 2.25,0.62 "/>
    <polygon id="247" class="fil94" points="0.02,0.62 0.02,0.61 2.25,0.6 2.25,0.61 "/>
    <polygon id="248" class="fil94" points="0.02,0.61 0.02,0.6 2.25,0.59 2.25,0.6 "/>
    <polygon id="249" class="fil95" points="0.02,0.6 0.02,0.59 2.25,0.58 2.25,0.6 "/>
    <polygon id="250" class="fil95" points="0.02,0.6 0.02,0.59 2.25,0.58 2.25,0.59 "/>
    <polygon id="251" class="fil96" points="0.02,0.59 0.02,0.58 2.25,0.57 2.25,0.58 "/>
    <polygon id="252" class="fil96" points="0.02,0.58 0.02,0.57 2.25,0.56 2.25,0.57 "/>
    <polygon id="253" class="fil96" points="0.02,0.58 0.02,0.56 2.25,0.56 2.25,0.57 "/>
    <polygon id="254" class="fil96" points="0.02,0.57 0.02,0.56 2.25,0.55 2.25,0.56 "/>
    <polygon id="255" class="fil96" points="0.02,0.56 0.02,0.55 2.25,0.54 2.25,0.55 "/>
    <polygon id="256" class="fil96" points="0.02,0.55 0.02,0.54 2.25,0.53 2.25,0.54 "/>
    <polygon id="257" class="fil96" points="0.02,0.55 0.02,0.53 2.25,0.53 2.25,0.54 "/>
    <polygon id="258" class="fil96" points="0.02,0.54 0.02,0.53 2.25,0.52 2.25,0.53 "/>
    <polygon id="259" class="fil96" points="0.02,0.53 0.02,0.52 2.25,0.51 2.25,0.52 "/>
    <polygon id="260" class="fil97" points="0.02,0.52 0.02,0.51 2.25,0.5 2.25,0.51 "/>
    <polygon id="261" class="fil97" points="0.02,0.52 0.02,0.51 2.25,0.5 2.25,0.51 "/>
    <polygon id="262" class="fil98" points="0.02,0.51 0.02,0.5 2.25,0.49 2.25,0.5 "/>
    <polygon id="263" class="fil98" points="0.02,0.5 0.02,0.49 2.25,0.48 2.25,0.49 "/>
    <polygon id="264" class="fil98" points="0.02,0.49 0.02,0.48 2.25,0.47 2.25,0.49 "/>
    <polygon id="265" class="fil98" points="0.02,0.49 0.02,0.48 2.25,0.47 2.25,0.48 "/>
    <polygon id="266" class="fil98" points="0.02,0.48 0.02,0.47 2.25,0.46 2.25,0.47 "/>
    <polygon id="267" class="fil98" points="0.02,0.47 0.02,0.46 2.25,0.45 2.25,0.46 "/>
    <polygon id="268" class="fil98" points="0.02,0.46 0.02,0.45 2.25,0.44 2.25,0.46 "/>
    <polygon id="269" class="fil98" points="0.02,0.46 0.02,0.45 2.25,0.44 2.25,0.45 "/>
    <polygon id="270" class="fil98" points="0.02,0.45 0.02,0.44 2.25,0.43 2.25,0.44 "/>
    <polygon id="271" class="fil99" points="0.02,0.44 0.02,0.43 2.25,0.42 2.25,0.43 "/>
    <polygon id="272" class="fil99" points="0.02,0.44 0.02,0.42 2.25,0.42 2.25,0.43 "/>
    <polygon id="273" class="fil99" points="0.02,0.43 0.02,0.42 2.25,0.41 2.25,0.42 "/>
    <polygon id="274" class="fil99" points="0.02,0.42 0.02,0.41 2.25,0.4 2.25,0.41 "/>
    <polygon id="275" class="fil99" points="0.02,0.41 0.02,0.4 2.25,0.39 2.25,0.4 "/>
    <polygon id="276" class="fil99" points="0.02,0.41 0.02,0.39 2.25,0.39 2.25,0.4 "/>
    <polygon id="277" class="fil99" points="0.02,0.4 0.02,0.39 2.25,0.38 2.25,0.39 "/>
    <polygon id="278" class="fil100" points="0.02,0.39 0.02,0.38 2.25,0.37 2.25,0.38 "/>
    <polygon id="279" class="fil100" points="0.02,0.38 0.02,0.37 2.25,0.36 2.25,0.37 "/>
    <polygon id="280" class="fil100" points="0.02,0.38 0.02,0.37 2.25,0.36 2.25,0.37 "/>
    <polygon id="281" class="fil100" points="0.02,0.37 0.02,0.36 2.25,0.35 2.25,0.36 "/>
    <polygon id="282" class="fil100" points="0.02,0.36 0.02,0.35 2.25,0.34 2.25,0.35 "/>
    <polygon id="283" class="fil100" points="0.02,0.35 0.02,0.34 2.25,0.33 2.25,0.35 "/>
    <polygon id="284" class="fil100" points="0.02,0.35 0.02,0.34 2.25,0.33 2.25,0.34 "/>
    <polygon id="285" class="fil101" points="0.02,0.34 0.02,0.33 2.25,0.32 2.25,0.33 "/>
    <polygon id="286" class="fil101" points="0.02,0.33 0.02,0.32 2.25,0.31 2.25,0.32 "/>
    <polygon id="287" class="fil101" points="0.02,0.32 0.02,0.31 2.25,0.3 2.25,0.32 "/>
    <polygon id="288" class="fil101" points="0.02,0.32 0.02,0.31 2.25,0.3 2.25,0.31 "/>
    <polygon id="289" class="fil101" points="0.02,0.31 0.02,0.3 2.25,0.29 2.25,0.3 "/>
    <polygon id="290" class="fil101" points="0.02,0.3 0.02,0.29 2.25,0.28 2.25,0.29 "/>
    <polygon id="291" class="fil101" points="0.02,0.3 0.02,0.28 2.25,0.28 2.25,0.29 "/>
    <polygon id="292" class="fil101" points="0.02,0.29 0.02,0.28 2.25,0.27 2.25,0.28 "/>
    <polygon id="293" class="fil101" points="0.02,0.28 0.02,0.27 2.25,0.26 2.25,0.27 "/>
    <polygon id="294" class="fil101" points="0.02,0.27 0.02,0.26 2.25,0.25 2.25,0.26 "/>
    <polygon id="295" class="fil101" points="0.02,0.27 0.02,0.25 2.25,0.25 2.25,0.26 "/>
    <polygon id="296" class="fil101" points="0.02,0.26 0.02,0.25 2.25,0.24 2.25,0.25 "/>
    <polygon id="297" class="fil101" points="0.02,0.25 0.02,0.24 2.25,0.23 2.25,0.24 "/>
    <polygon id="298" class="fil101" points="0.02,0.24 0.02,0.23 2.25,0.22 2.25,0.23 "/>
    <polygon id="299" class="fil101" points="0.02,0.24 0.02,0.23 2.25,0.22 2.25,0.23 "/>
    <polygon id="300" class="fil102" points="0.02,0.23 0.02,0.22 2.25,0.21 2.25,0.22 "/>
    <polygon id="301" class="fil102" points="0.02,0.22 0.02,0.21 2.25,0.2 2.25,0.21 "/>
    <polygon id="302" class="fil102" points="0.02,0.21 0.02,0.2 2.25,0.19 2.25,0.21 "/>
    <polygon id="303" class="fil102" points="0.02,0.21 0.02,0.2 2.25,0.19 2.25,0.2 "/>
    <polygon id="304" class="fil103" points="0.02,0.2 0.02,0.19 2.25,0.18 2.25,0.19 "/>
    <polygon id="305" class="fil103" points="0.02,0.19 0.02,0.18 2.25,0.17 2.25,0.18 "/>
    <polygon id="306" class="fil103" points="0.02,0.18 0.02,0.17 2.25,0.16 2.25,0.18 "/>
    <polygon id="307" class="fil103" points="0.02,0.18 0.02,0.17 2.25,0.16 2.25,0.17 "/>
    <polygon id="308" class="fil103" points="0.02,0.17 0.02,0.16 2.25,0.15 2.25,0.16 "/>
    <polygon id="309" class="fil103" points="0.02,0.16 0.02,0.15 2.25,0.14 2.25,0.15 "/>
    <polygon id="310" class="fil103" points="0.02,0.16 0.02,0.14 2.25,0.14 2.25,0.15 "/>
    <polygon id="311" class="fil103" points="0.02,0.15 0.02,0.14 2.25,0.13 2.25,0.14 "/>
    <polygon id="312" class="fil103" points="0.02,0.14 0.02,0.13 2.25,0.12 2.25,0.13 "/>
    <polygon id="313" class="fil103" points="0.02,0.13 0.02,0.12 2.25,0.11 2.25,0.12 "/>
    <polygon id="314" class="fil103" points="0.02,0.13 0.02,0.11 2.25,0.11 2.25,0.12 "/>
    <polygon id="315" class="fil103" points="0.02,0.12 0.02,0.11 2.25,0.1 2.25,0.11 "/>
    <polygon id="316" class="fil103" points="0.02,0.11 0.02,0.1 2.25,0.09 2.25,0.1 "/>
    <polygon id="317" class="fil103" points="0.02,0.1 0.02,0.09 2.25,0.08 2.25,0.09 "/>
    <polygon id="318" class="fil103" points="0.02,0.1 0.02,0.09 2.25,0.08 2.25,0.09 "/>
    <polygon id="319" class="fil103" points="0.02,0.09 0.02,0.08 2.25,0.07 2.25,0.08 "/>
    <polygon id="320" class="fil103" points="0.02,0.08 0.02,0.07 2.25,0.06 2.25,0.07 "/>
    <polygon id="321" class="fil103" points="0.02,0.07 0.02,0.06 2.25,0.05 2.25,0.07 "/>
    <polygon id="322" class="fil103" points="0.02,0.07 0.02,0.06 2.25,0.05 2.25,0.06 "/>
    <polygon id="323" class="fil103" points="0.02,0.06 0.02,0.05 2.25,0.04 2.25,0.05 "/>
    <polygon id="324" class="fil103" points="0.02,0.05 0.02,0.04 2.25,0.03 2.25,0.04 "/>
    <polygon id="325" class="fil103" points="0.02,0.04 0.02,0.05 2.25,0.04 2.25,0.04 "/>
   </g>
  </g>
  <path class="fil104" d="M0.52 0.82l1.72 0 0.29 0.08 -0.39 1.85 -2.09 0.02 0.01 -0.31 0.3 -1.47c0.02,-0.1 0.09,-0.17 0.16,-0.17z"/>
  <path class="fil105 str0" d="M0.05 0.05l1.56 0 0.07 0.26 0.49 0c0.04,0 0.08,0.06 0.08,0.12l0 0.43 0.3 0 -0.39 1.9 -2.11 0 0 -2.71z"/>
  <polygon class="fil106" points="1.25,0.27 0.78,0.27 0.71,0 1.17,0 "/>
  <path class="fil107" d="M1.71 0.26l-0.46 0.01 -0.08 -0.27 0.44 0c0.01,0 0.03,0.01 0.03,0.03l0.07 0.23z"/>
 </g>
</svg>
