<?xml version="1.0" encoding="UTF-8"?>
<!DOCTYPE svg PUBLIC "-//W3C//DTD SVG 1.1//EN" "http://www.w3.org/Graphics/SVG/1.1/DTD/svg11.dtd">
<!-- Creator: CorelDRAW 2020 (64-Bit) -->
<svg xmlns="http://www.w3.org/2000/svg" xml:space="preserve" width="169px" height="122px" version="1.1" style="shape-rendering:geometricPrecision; text-rendering:geometricPrecision; image-rendering:optimizeQuality; fill-rule:evenodd; clip-rule:evenodd"
viewBox="0 0 169 122.06"
 xmlns:xlink="http://www.w3.org/1999/xlink"
 xmlns:xodm="http://www.corel.com/coreldraw/odm/2003">
 <defs>
  <style type="text/css">
   <![CDATA[
    .str0 {stroke:#2B2A29;stroke-miterlimit:22.9256}
    .str1 {stroke:#2B2A29;stroke-width:5.01;stroke-miterlimit:22.9256}
    .fil2 {fill:none}
    .fil1 {fill:#2B2A29}
    .fil0 {fill:#FEFEFE}
   ]]>
  </style>
 </defs>
 <g id="Слой_x0020_1">
  <metadata id="CorelCorpID_0Corel-Layer"/>
  <g id="_2498567455792">
   <polygon class="fil0" points="0,0 169,0 169,122.06 0,122.06 "/>
   <path id="_1" class="fil1" d="M0 0l169 0 0 122.06 -169 0 0 -122.06zm167.23 1.77l-165.46 0 0 118.51 165.46 0 0 -118.51z"/>
  </g>
  <g id="_2498567455696">
   <polygon class="fil0" points="25.02,23.58 103.97,23.58 103.97,98.48 25.02,98.48 "/>
   <path id="_1_0" class="fil1" d="M25.02 23.58l78.95 0 0 74.9 -78.95 0 0 -74.9zm78.12 1.09l-77.29 0 0 72.72 77.29 0 0 -72.72z"/>
  </g>
  <line class="fil2 str0" x1="45.29" y1="24.67" x2="45.29" y2= "97.39" />
  <line class="fil2 str0" x1="25.85" y1="38.07" x2="45.29" y2= "38.07" />
  <line class="fil2 str0" x1="25.85" y1="52.78" x2="45.29" y2= "52.78" />
  <line class="fil2 str0" x1="25.85" y1="67.49" x2="45.29" y2= "67.49" />
  <line class="fil2 str0" x1="25.85" y1="82.2" x2="45.29" y2= "82.2" />
  <line class="fil2 str0" x1="45.29" y1="43.08" x2="103.14" y2= "43.08" />
  <circle class="fil2 str1" cx="90.05" cy="55.28" r="23.47"/>
  <line class="fil2 str1" x1="109.14" y1="69.99" x2="143.56" y2= "98.79" />
 </g>
</svg>
