<?xml version="1.0" encoding="UTF-8"?>
<!DOCTYPE svg PUBLIC "-//W3C//DTD SVG 1.1//EN" "http://www.w3.org/Graphics/SVG/1.1/DTD/svg11.dtd">
<!-- Creator: CorelDRAW 2020 (64-Bit) -->
<svg xmlns="http://www.w3.org/2000/svg" xml:space="preserve" width="54px" height="39px" version="1.1" style="shape-rendering:geometricPrecision; text-rendering:geometricPrecision; image-rendering:optimizeQuality; fill-rule:evenodd; clip-rule:evenodd"
viewBox="0 0 54 39"
 xmlns:xlink="http://www.w3.org/1999/xlink"
 xmlns:xodm="http://www.corel.com/coreldraw/odm/2003">
 <defs>
  <style type="text/css">
   <![CDATA[
    .str0 {stroke:#2B2A29;stroke-width:0.567;stroke-linecap:round;stroke-linejoin:round;stroke-miterlimit:22.9256}
    .fil2 {fill:none}
    .fil0 {fill:#FEFEFE}
    .fil1 {fill:#2B2A29}
   ]]>
  </style>
 </defs>
 <g id="Слой_x0020_1">
  <metadata id="CorelCorpID_0Corel-Layer"/>
  <g>
   <polygon class="fil0" points="0,0 54,0 54,39 0,39 "/>
   <path id="1" class="fil1" d="M0 0l54 0 0 39 -54 0 0 -39zm53.433 0.567l-52.866 0 0 37.866 52.866 0 0 -37.866z"/>
  </g>
  <line class="fil2 str0" x1="12.108" y1="2.603" x2="12.108" y2= "29.199" />
  <line class="fil2 str0" x1="12.108" y1="2.634" x2="21.108" y2= "8.628" />
  <line class="fil2 str0" x1="12.108" y1="29.199" x2="21.108" y2= "35.628" />
  <line class="fil2 str0" x1="21.108" y1="8.628" x2="21.108" y2= "35.628" />
  <line class="fil2 str0" x1="16.108" y1="2.603" x2="12.108" y2= "2.603" />
  <line class="fil2 str0" x1="16.108" y1="2.634" x2="25.108" y2= "8.628" />
  <line class="fil2 str0" x1="21.108" y1="35.628" x2="25.108" y2= "35.628" />
  <line class="fil2 str0" x1="25.108" y1="8.628" x2="25.108" y2= "35.628" />
  <line class="fil2 str0" x1="21.108" y1="8.628" x2="25.108" y2= "8.628" />
  <line class="fil2 str0" x1="26.252" y1="8.744" x2="43.577" y2= "8.744" />
  <line class="fil2 str0" x1="26.252" y1="35.294" x2="43.577" y2= "35.294" />
  <line class="fil2 str0" x1="38.327" y1="31.994" x2="38.327" y2= "10.544" />
  <line class="fil2 str0" x1="36.527" y1="13.469" x2="38.327" y2= "10.544" />
  <line class="fil2 str0" x1="40.127" y1="13.469" x2="38.327" y2= "10.544" />
  <line class="fil2 str0" x1="36.527" y1="29.07" x2="38.327" y2= "31.994" />
  <line class="fil2 str0" x1="40.127" y1="29.07" x2="38.327" y2= "31.994" />
 </g>
</svg>
