<?xml version="1.0" encoding="UTF-8"?>
<!DOCTYPE svg PUBLIC "-//W3C//DTD SVG 1.1//EN" "http://www.w3.org/Graphics/SVG/1.1/DTD/svg11.dtd">
<!-- Creator: CorelDRAW 2019 (64-Bit) -->
<svg xmlns="http://www.w3.org/2000/svg" xml:space="preserve" width="51px" height="27px" version="1.1" style="shape-rendering:geometricPrecision; text-rendering:geometricPrecision; image-rendering:optimizeQuality; fill-rule:evenodd; clip-rule:evenodd"
viewBox="0 0 26.64 14.3"
 xmlns:xlink="http://www.w3.org/1999/xlink"
 xmlns:xodm="http://www.corel.com/coreldraw/odm/2003">
 <defs>
  <style type="text/css">
   <![CDATA[
    .str0 {stroke:#2B2A29;stroke-width:0.53;stroke-miterlimit:2.61313}
    .str1 {stroke:#00A0E3;stroke-width:0.53;stroke-miterlimit:2.61313;stroke-dasharray:2.630000 1.580000}
    .fil0 {fill:none}
    .fil1 {fill:#2B2A29;fill-rule:nonzero}
   ]]>
  </style>
 </defs>
 <g id="Слой_x0020_1">
  <metadata id="CorelCorpID_0Corel-Layer"/>
  <rect class="fil0 str0" x="1.36" y="0.26" width="23.93" height="13.78"/>
  <g>
   <path class="fil1" d="M3.38 1.5l0 0.52 -0.53 0 0 -0.52 0.53 0zm2.62 0l0 0.52 -1.05 0 0 -0.52 1.05 0zm2.61 0l0 0.52 -1.04 0 0 -0.52 1.04 0zm2.62 0l0 0.52 -1.05 0 0 -0.52 1.05 0zm2.62 0l0 0.52 -1.05 0 0 -0.52 1.05 0zm2.61 0l0 0.52 -1.04 0 0 -0.52 1.04 0zm2.62 0l0 0.52 -1.05 0 0 -0.52 1.05 0zm2.61 0l0 0.52 -1.04 0 0 -0.52 1.04 0zm2.1 0.52l-0.53 0 0 -0.52 0.53 0 0.26 0.26 -0.26 0.26zm0 -0.52l0.26 0 0 0.26 -0.26 -0.26zm0.26 0.79l-0.52 0 0 -0.53 0.52 0 0 0.53zm0 2.7l-0.52 0 0 -1.08 0.52 0 0 1.08zm0 2.7l-0.52 0 0 -1.08 0.52 0 0 1.08zm0 2.7l-0.52 0 0 -1.08 0.52 0 0 1.08zm-0.52 2.15l0 -0.53 0.52 0 0 0.53 -0.26 0.27 -0.26 -0.27zm0.52 0l0 0.27 -0.26 0 0.26 -0.27zm-0.79 0.27l0 -0.53 0.53 0 0 0.53 -0.53 0zm-2.61 0l0 -0.53 1.04 0 0 0.53 -1.04 0zm-2.62 0l0 -0.53 1.05 0 0 0.53 -1.05 0zm-2.62 0l0 -0.53 1.05 0 0 0.53 -1.05 0zm-2.61 0l0 -0.53 1.05 0 0 0.53 -1.05 0zm-2.62 0l0 -0.53 1.05 0 0 0.53 -1.05 0zm-2.61 0l0 -0.53 1.04 0 0 0.53 -1.04 0zm-2.62 0l0 -0.53 1.05 0 0 0.53 -1.05 0zm-2.1 -0.53l0.53 0 0 0.53 -0.53 0 -0.26 -0.27 0.26 -0.26zm0 0.53l-0.26 0 0 -0.27 0.26 0.27zm-0.26 -0.79l0.53 0 0 0.52 -0.53 0 0 -0.52zm0 -2.71l0.53 0 0 1.08 -0.53 0 0 -1.08zm0 -2.7l0.53 0 0 1.08 -0.53 0 0 -1.08zm0 -2.7l0.53 0 0 1.08 -0.53 0 0 -1.08zm0.53 -2.15l0 0.53 -0.53 0 0 -0.53 0.26 -0.26 0.27 0.26zm-0.53 0l0 -0.26 0.26 0 -0.26 0.26z"/>
  </g>
  <rect class="fil0 str0" x="6.09" y="3.65" width="6.49" height="2.91"/>
  <rect class="fil0 str0" x="6.09" y="7.91" width="6.49" height="2.91"/>
  <rect class="fil0 str0" x="14.05" y="3.65" width="6.49" height="2.91"/>
  <rect class="fil0 str0" x="14.05" y="7.91" width="6.49" height="2.91"/>
  <line class="fil0 str1" x1="0" y1="7.33" x2="26.64" y2= "7.33" />
 </g>
</svg>
