<?xml version="1.0" encoding="UTF-8"?>
<!DOCTYPE svg PUBLIC "-//W3C//DTD SVG 1.1//EN" "http://www.w3.org/Graphics/SVG/1.1/DTD/svg11.dtd">
<!-- Creator: CorelDRAW 2019 (64-Bit) -->
<svg xmlns="http://www.w3.org/2000/svg" xml:space="preserve" width="46px" height="27px" version="1.1" style="shape-rendering:geometricPrecision; text-rendering:geometricPrecision; image-rendering:optimizeQuality; fill-rule:evenodd; clip-rule:evenodd"
viewBox="0 0 6.71 3.92"
 xmlns:xlink="http://www.w3.org/1999/xlink"
 xmlns:xodm="http://www.corel.com/coreldraw/odm/2003">
 <defs>
  <style type="text/css">
   <![CDATA[
    .str0 {stroke:#2B2A29;stroke-width:0.14;stroke-miterlimit:2.61313}
    .str1 {stroke:#00A0E3;stroke-width:0.14;stroke-miterlimit:2.61313}
    .str2 {stroke:#00A0E3;stroke-width:0.14;stroke-miterlimit:2.61313;stroke-dasharray:0.720000 0.430000}
    .fil0 {fill:none}
    .fil1 {fill:#2B2A29;fill-rule:nonzero}
   ]]>
  </style>
 </defs>
 <g id="Слой_x0020_1">
  <metadata id="CorelCorpID_0Corel-Layer"/>
  <rect class="fil0 str0" x="0.07" y="0.07" width="6.56" height="3.78"/>
  <g>
   <path class="fil1" d="M0.63 0.41l0 0.15 -0.15 0 0 -0.15 0.15 0zm0.71 0l0 0.15 -0.28 0 0 -0.15 0.28 0zm0.72 0l0 0.15 -0.28 0 0 -0.15 0.28 0zm0.72 0l0 0.15 -0.29 0 0 -0.15 0.29 0zm0.72 0l0 0.15 -0.29 0 0 -0.15 0.29 0zm0.71 0l0 0.15 -0.28 0 0 -0.15 0.28 0zm0.72 0l0 0.15 -0.29 0 0 -0.15 0.29 0zm0.72 0l0 0.15 -0.29 0 0 -0.15 0.29 0zm0.57 0.15l-0.14 0 0 -0.15 0.14 0 0.08 0.07 -0.08 0.08zm0 -0.15l0.08 0 0 0.07 -0.08 -0.07zm0.08 0.22l-0.15 0 0 -0.15 0.15 0 0 0.15zm0 0.74l-0.15 0 0 -0.3 0.15 0 0 0.3zm0 0.74l-0.15 0 0 -0.3 0.15 0 0 0.3zm0 0.74l-0.15 0 0 -0.3 0.15 0 0 0.3zm-0.15 0.59l0 -0.15 0.15 0 0 0.15 -0.08 0.07 -0.07 -0.07zm0.15 0l0 0.07 -0.08 0 0.08 -0.07zm-0.22 0.07l0 -0.14 0.14 0 0 0.14 -0.14 0zm-0.72 0l0 -0.14 0.29 0 0 0.14 -0.29 0zm-0.72 0l0 -0.14 0.29 0 0 0.14 -0.29 0zm-0.71 0l0 -0.14 0.28 0 0 0.14 -0.28 0zm-0.72 0l0 -0.14 0.29 0 0 0.14 -0.29 0zm-0.72 0l0 -0.14 0.29 0 0 0.14 -0.29 0zm-0.72 0l0 -0.14 0.29 0 0 0.14 -0.29 0zm-0.71 0l0 -0.14 0.28 0 0 0.14 -0.28 0zm-0.58 -0.14l0.15 0 0 0.14 -0.15 0 -0.07 -0.07 0.07 -0.07zm0 0.14l-0.07 0 0 -0.07 0.07 0.07zm-0.07 -0.22l0.15 0 0 0.15 -0.15 0 0 -0.15zm0 -0.74l0.15 0 0 0.3 -0.15 0 0 -0.3zm0 -0.74l0.15 0 0 0.3 -0.15 0 0 -0.3zm0 -0.74l0.15 0 0 0.3 -0.15 0 0 -0.3zm0.15 -0.59l0 0.15 -0.15 0 0 -0.15 0.07 -0.07 0.08 0.07zm-0.15 0l0 -0.07 0.07 0 -0.07 0.07z"/>
  </g>
  <circle class="fil0 str1" cx="3.35" cy="1.96" r="1.13"/>
  <line class="fil0 str2" x1="1.94" y1="1.96" x2="4.77" y2= "1.96" />
  <line class="fil0 str2" x1="3.35" y1="3.38" x2="3.35" y2= "0.54" />
 </g>
</svg>
