<?xml version="1.0" encoding="UTF-8"?>
<!DOCTYPE svg PUBLIC "-//W3C//DTD SVG 1.1//EN" "http://www.w3.org/Graphics/SVG/1.1/DTD/svg11.dtd">
<!-- Creator: CorelDRAW 2019 (64-Bit) -->
<svg xmlns="http://www.w3.org/2000/svg" xml:space="preserve" width="46px" height="37px" version="1.1" style="shape-rendering:geometricPrecision; text-rendering:geometricPrecision; image-rendering:optimizeQuality; fill-rule:evenodd; clip-rule:evenodd"
viewBox="0 0 10.47 8.34"
 xmlns:xlink="http://www.w3.org/1999/xlink"
 xmlns:xodm="http://www.corel.com/coreldraw/odm/2003">
 <defs>
  <style type="text/css">
   <![CDATA[
    .str0 {stroke:#2B2A29;stroke-width:0.23;stroke-miterlimit:2.61313}
    .str1 {stroke:#00A0E3;stroke-width:0.23;stroke-miterlimit:2.61313;stroke-dasharray:1.130000 0.680000}
    .fil0 {fill:none}
    .fil1 {fill:#2B2A29;fill-rule:nonzero}
   ]]>
  </style>
 </defs>
 <g id="Слой_x0020_1">
  <metadata id="CorelCorpID_0Corel-Layer"/>
  <rect class="fil0 str0" x="0.11" y="1.25" width="10.24" height="5.9"/>
  <g>
   <path class="fil1" d="M0.98 1.78l0 0.23 -0.23 0 0 -0.23 0.23 0zm1.12 0l0 0.23 -0.45 0 0 -0.23 0.45 0zm1.12 0l0 0.23 -0.45 0 0 -0.23 0.45 0zm1.12 0l0 0.23 -0.45 0 0 -0.23 0.45 0zm1.12 0l0 0.23 -0.45 0 0 -0.23 0.45 0zm1.12 0l0 0.23 -0.45 0 0 -0.23 0.45 0zm1.12 0l0 0.23 -0.45 0 0 -0.23 0.45 0zm1.12 0l0 0.23 -0.45 0 0 -0.23 0.45 0zm0.89 0.23l-0.22 0 0 -0.23 0.22 0 0.12 0.12 -0.12 0.11zm0 -0.23l0.12 0 0 0.12 -0.12 -0.12zm0.12 0.34l-0.23 0 0 -0.22 0.23 0 0 0.22zm0 1.16l-0.23 0 0 -0.47 0.23 0 0 0.47zm0 1.15l-0.23 0 0 -0.46 0.23 0 0 0.46zm0 1.16l-0.23 0 0 -0.46 0.23 0 0 0.46zm-0.23 0.92l0 -0.23 0.23 0 0 0.23 -0.12 0.11 -0.11 -0.11zm0.23 0l0 0.11 -0.12 0 0.12 -0.11zm-0.34 0.11l0 -0.22 0.22 0 0 0.22 -0.22 0zm-1.12 0l0 -0.22 0.45 0 0 0.22 -0.45 0zm-1.12 0l0 -0.22 0.45 0 0 0.22 -0.45 0zm-1.12 0l0 -0.22 0.45 0 0 0.22 -0.45 0zm-1.12 0l0 -0.22 0.45 0 0 0.22 -0.45 0zm-1.12 0l0 -0.22 0.45 0 0 0.22 -0.45 0zm-1.12 0l0 -0.22 0.45 0 0 0.22 -0.45 0zm-1.12 0l0 -0.22 0.45 0 0 0.22 -0.45 0zm-0.9 -0.22l0.23 0 0 0.22 -0.23 0 -0.11 -0.11 0.11 -0.11zm0 0.22l-0.11 0 0 -0.11 0.11 0.11zm-0.11 -0.34l0.23 0 0 0.23 -0.23 0 0 -0.23zm0 -1.15l0.23 0 0 0.46 -0.23 0 0 -0.46zm0 -1.16l0.23 0 0 0.46 -0.23 0 0 -0.46zm0 -1.15l0.23 0 0 0.46 -0.23 0 0 -0.46zm0.23 -0.92l0 0.22 -0.23 0 0 -0.22 0.11 -0.12 0.12 0.12zm-0.23 0l0 -0.12 0.11 0 -0.11 0.12z"/>
  </g>
  <rect class="fil0 str0" x="2.14" y="2.7" width="2.78" height="1.24"/>
  <rect class="fil0 str0" x="2.14" y="4.53" width="2.78" height="1.24"/>
  <rect class="fil0 str0" x="5.54" y="2.7" width="2.78" height="1.24"/>
  <rect class="fil0 str0" x="5.54" y="4.53" width="2.78" height="1.24"/>
  <line class="fil0 str1" x1="5.23" y1="0" x2="5.23" y2= "8.56" />
 </g>
</svg>
