<?xml version="1.0" encoding="UTF-8"?>
<!DOCTYPE svg PUBLIC "-//W3C//DTD SVG 1.1//EN" "http://www.w3.org/Graphics/SVG/1.1/DTD/svg11.dtd">
<!-- Creator: CorelDRAW 2020 (64-Bit) -->
<svg xmlns="http://www.w3.org/2000/svg" xml:space="preserve" width="169px" height="122px" version="1.1" style="shape-rendering:geometricPrecision; text-rendering:geometricPrecision; image-rendering:optimizeQuality; fill-rule:evenodd; clip-rule:evenodd"
viewBox="0 0 16.32 11.79"
 xmlns:xlink="http://www.w3.org/1999/xlink"
 xmlns:xodm="http://www.corel.com/coreldraw/odm/2003">
 <defs>
  <style type="text/css">
   <![CDATA[
    .str0 {stroke:black;stroke-width:0.17;stroke-linecap:round;stroke-linejoin:round;stroke-miterlimit:22.9256}
    .fil2 {fill:none}
    .fil1 {fill:#2B2A29}
    .fil0 {fill:#FEFEFE}
   ]]>
  </style>
 </defs>
 <g id="Слой_x0020_1">
  <metadata id="CorelCorpID_0Corel-Layer"/>
  <g id="_2709698102576">
   <polygon class="fil0" points="0,0 16.32,0 16.32,11.79 0,11.79 "/>
   <path id="_1" class="fil1" d="M0 0l16.32 0 0 11.79 -16.32 0 0 -11.79zm16.15 0.17l-15.98 0 0 11.44 15.98 0 0 -11.44z"/>
  </g>
 </g>
 <g id="_0">
  <metadata id="CorelCorpID_1Corel-Layer"/>
  <path class="fil2 str0" d="M13.7 6.2l0.01 0m-0.03 0.01l0.02 -0.01m-0.04 0.01l0.02 0m-0.05 0.01l0.03 -0.01m-0.07 0.01l0.04 0m-0.07 0l0.03 0m-0.06 -0.01l0.03 0.01m-0.06 -0.01l0.03 0m-0.05 -0.01l0.02 0.01m-0.04 -0.02l0.02 0.01m-0.02 -0.02l0 0.01m0 -0.01l0 -0.03m0.73 -2.84l-0.13 -0.06m0.38 0.26l-0.12 -0.11m-0.06 3.3l0.13 -0.03m0.27 -2.86l-0.11 -0.16m0.36 0.76l-0.07 -0.21m0.19 1.12l0 -0.23m-0.03 -0.23l-0.03 -0.23m0.06 0.46l-0.03 -0.23m-0.24 -0.86l-0.1 -0.19m0.31 0.82l-0.06 -0.22m-0.07 -0.21l-0.08 -0.2m-1.4 2.01l0.06 -0.03m1.13 -2.33l-0.11 -0.14m-1.33 0.64l-0.07 0m0.94 -0.37l-0.02 0.06m0 -0.12l-0.01 0.03m-1.14 0.55l-0.01 0.01m0.38 -0.14l-0.07 -0.02m0.31 1.83l0.06 -0.05m-0.23 -1.73l-0.07 -0.03m0.3 1.76l0.05 -0.06m-0.09 -0.05l0.04 -0.05m-0.62 -1.53l-0.05 0.06m0.52 1.58l0.06 -0.02m-0.01 -1.55l-0.06 -0.07m0.56 -0.8l0.03 0.03m0 0.08l0.02 0.01m-0.65 2.33l0.05 -0.01m0.64 -2.29l0.01 0.06m-0.02 -0.03l0 0.03m-0.02 -0.13l0.03 0.07m-0.03 0l0.02 0.03m-0.44 2.08l0.04 -0.07m0 0l0.02 -0.09m-0.6 -1.38l-0.06 0.04m0.4 0.04l-0.07 -0.04m0.73 -0.48l0 0.06m-0.02 -0.09l0 0.03m-0.92 0.43l-0.06 0.01m0.31 1.86l0.07 -0.01m1.04 0.56l0.1 -0.11m-1.11 -0.6l0.05 -0.04m0.04 -0.05l0.04 -0.07m0.3 -2.06l0 -0.04m0.01 0.32l-0.03 -0.02m0.07 0.03l-0.04 -0.01m0.08 -0.13l-0.02 0m-0.15 -0.34l0.03 -0.03m0.07 0.13l0.02 -0.01m-0.17 0.08l0.01 -0.07m0.19 0.24l-0.02 -0.01m-0.05 -0.11l0 -0.03m-0.11 0.11l-0.01 -0.06m0.13 0.01l-0.01 -0.03m0.13 0.08l-0.01 0.02m-0.03 0.14l-0.04 0.02m0.06 -0.15l-0.02 0.01m-0.46 2.21l-0.16 0.02m0.44 -2.21l-0.02 -0.06m0.13 -0.02l-0.01 -0.03m-0.07 0.16l-0.03 -0.05m0.12 -0.05l-0.01 -0.03m0.1 0.15l-0.03 0.03m-0.14 -0.49l0.03 -0.01m0.06 0.13l0.01 -0.01m-0.05 0.07l0.01 -0.02m-0.61 2.47l-0.02 -0.06m0.29 0.17l-0.04 -0.16m0.25 -2.31l-0.01 -0.07m0.25 0.15l-0.01 0.01m-0.22 -0.28l0.03 -0.05m0.22 0.39l-0.02 0.04m-0.07 -0.1l-0.02 -0.02m-0.15 -0.21l0.01 -0.05m0.12 0.08l0.01 -0.03m-0.04 0.35l-0.04 -0.04m0.17 -0.3l0.01 0.03m-0.05 -0.06l0.02 0.02m0.03 2.38l0 0.31m0.02 -2.59l0 0.04m-0.12 -0.28l0.04 0.03m-0.08 -0.03l0.04 0m0.03 0.12l0.02 0m0.05 2.4l-0.49 0.07m0.53 -2.35l0 0.07m-0.07 -0.25l0.03 0.05m0.53 2.44l-0.01 -0.03m0.03 -0.17l0.02 0m0.07 0.24l-0.02 0.01m0 -0.22l0.02 0.03m0 0l0.01 0.03m-0.12 -0.07l0.02 -0.02m0.05 0.26l-0.02 -0.01m0.07 -0.16l0.01 0.03m0 0.07l-0.01 0.03m-0.14 -0.09l0 -0.03m0.15 0.06l0 0.03m-0.08 0.06l-0.02 -0.01m-0.04 -0.2l0.01 -0.02m0.09 0.23l-0.02 0.01m0.05 -0.04l-0.01 0.02m-0.13 -0.14l0 -0.03m0.01 0.1l-0.01 -0.04m0.05 0.11l-0.01 -0.02m0.06 -0.21l0.01 0.02m0.04 0.09l0 0.04m-0.15 -0.09l0.01 -0.03m0.07 -0.04l0.02 0.01m-0.06 0.21l-0.02 -0.02m0.04 -0.2l0.02 0m0.01 -1.73l-0.1 -0.19m-0.39 2.89l0.12 -0.02m0.09 -0.01l-0.21 0.03m-0.08 -3.39l-0.13 -0.06m0.67 3.34l0.11 -0.08m-0.33 0.11l0.11 -0.08m0.32 -0.14l0.09 -0.14m-0.31 0.17l0.09 -0.14m0.2 -1.43l-0.04 -0.23m0.13 1.47l0.06 -0.18m-0.28 0.21l0.07 -0.18m0.21 -0.03l0.05 -0.2m-0.26 0.23l0.04 -0.19m-0.38 0.88l0.12 -0.05m-0.34 0.09l0.12 -0.06m0.52 -1.3l0 -0.23m-0.12 -0.68l-0.07 -0.21m-0.93 -0.17l-0.65 0.09m1.71 0.51l-0.06 -0.22m-0.63 -1.19l-0.13 -0.03m-0.09 0.06l-0.13 -0.03m-0.47 0.18l-0.09 0.11m0.77 3.18l0.13 0.01m-1.12 -2.71l-0.04 0.19m1.04 -0.99l-0.13 0m0 0l-0.21 0.03m0.12 0l-0.12 0m-0.24 0.09l-0.11 0.09m1.78 2.11l0.01 -0.22m-0.23 0.26l0.01 -0.23m-1.22 -2.1l-0.12 0.03m0 0l-0.12 0.06m-0.22 2.62l0.08 0.15m1.14 -1.05l-0.02 -0.12m-0.05 -0.24l-0.03 -0.12m0.09 0.72l0.01 -0.12m-0.59 -1.12l-0.07 0m0.61 1.46l0.03 -0.1m-0.24 -1.13l-0.06 -0.08m-0.72 2.07l0.11 0.14m0.73 -2.04l-0.06 -0.09m-0.08 1.62l0.06 -0.03m-0.4 0.75l0.12 0.06m-0.37 -0.27l0.12 0.11m0.56 -3.1l-0.13 -0.09m0.84 1.78l-0.02 -0.23m-0.96 -0.82l-0.07 -0.01m0.57 0.88l-0.02 -0.12m-0.37 1.11l0.07 -0.02m-0.95 -2.23l-0.07 0.16m1.26 0.74l-0.05 -0.1m0.15 0.7l0 -0.12m-0.38 -0.91l-0.07 -0.04m0.3 0.37l-0.05 -0.1m-1.16 -0.54l-0.06 0.18m1.1 0.19l-0.06 -0.06m-0.43 2.38l0.13 0.1m0.4 -0.75l0.06 -0.04m0.2 -0.42l0.01 -0.12m-1.45 -1.09l0 0.01m1.29 1.56l0.05 -0.08m-0.44 0.99l0.13 0.03m0.42 -3.04l-0.12 -0.14m0.4 0.69l-0.08 -0.2m-1.33 2.08l0.1 0.17m0.59 -2.17l-0.07 -0.04m0.48 0.75l-0.03 -0.12m-0.15 1.14l0.05 -0.06m0.05 -0.08l0.04 -0.08m0.05 -2.22l-0.13 -0.09m-1.04 0.23l-0.09 0.14m1.21 1.94l0.03 -0.1m-0.08 -1.98l-0.12 -0.11m0.89 2.32l0.03 -0.21m-0.25 0.25l0.03 -0.21m-0.36 -1.74l-0.1 -0.16m0.47 2.61l0.07 -0.16m-0.26 0.41l0.1 -0.11m-1.03 -1.27l-0.01 -0.13m-0.1 0.77l0.04 -0.08m-0.09 0.15l0.05 -0.07m0.12 -0.52l-0.01 -0.12m-0.08 -0.12l-0.02 -0.1m0.03 0.21l-0.01 -0.11m0.01 0.32l0 -0.11m0.03 0.37l0.02 -0.11m-0.1 -0.68l-0.03 -0.1m-0.04 -0.26l-0.06 -0.09m0.15 0.3l-0.04 -0.11m-0.1 -0.01l-0.05 -0.08m-0.05 -0.06l-0.05 -0.06m1.29 1.96l0.07 -0.16m-1.11 -1.59l-0.05 -0.1m0.13 0.32l-0.04 -0.11m-0.29 -0.32l-0.06 -0.04m0.44 0.71l-0.02 -0.12m-0.26 -0.43l-0.05 -0.06m-0.11 -0.1l-0.06 -0.03m0.4 1.25l0.02 -0.09m0.02 -0.2l0 -0.1m-0.44 -0.86l-0.06 -0.01m0.48 1.17l0.02 -0.09m-0.12 -0.72l-0.05 -0.08m0.24 0.84l0.01 -0.12m-0.04 -0.37l-0.03 -0.12m0.04 0.72l0.02 -0.11m-0.07 0.32l0.03 -0.1m-0.53 -1.34l-0.06 0m0.38 0.1l-0.06 -0.07m0.16 0.42l-0.04 -0.09m0.09 0.3l-0.02 -0.11m1.03 0.99l0.02 0.06m-0.18 -0.24l0.04 0m0.09 0.48l-0.03 0.02m0.04 -0.38l0.02 0.06m-0.2 -0.17l0.04 -0.01m-0.08 0.4l-0.02 -0.06m0.05 0.11l-0.03 -0.05m0.18 0.1l-0.03 0.02m-0.18 -0.38l0.02 -0.06m0.2 -0.02l0.03 0.06m-0.26 0.08l0.01 -0.06m0.1 0.35l-0.04 -0.04m0.08 0.06l-0.04 -0.02m0.18 -0.11l-0.01 0.05m-0.12 -0.43l0.03 0.02m-0.17 0.32l-0.01 -0.07m0 0l-0.01 -0.07m0.3 0.04l0 0.07m0 0l-0.01 0.07m-0.1 -0.36l0.04 0.04m-0.04 0.46l-0.04 -0.01m0.13 -0.08l-0.03 0.05m-0.22 -0.4l0.02 -0.04m0 0l0.03 -0.03m-12.09 -0.72l-0.12 -0.07m-0.26 2.28l0.04 0.09m-0.55 -0.24l0.05 0.23m0.14 0.44l0.09 0.19m0.83 -2.7l-0.11 -0.12m-0.6 1.68l0.02 0.12m-0.49 -0.78l0 0.23m0.16 -1.01l-0.06 0.17m-0.05 0.19l-0.03 0.2m1.09 2.7l0.11 -0.03m-0.74 -2.31l-0.01 0.09m0.92 -0.8l-0.1 -0.18m0.33 0.82l-0.06 -0.23m0.19 1.2l-0.01 -0.24m-0.02 -0.25l-0.04 -0.24m0.06 0.49l-0.02 -0.25m-0.24 -0.93l-0.09 -0.19m0.29 0.88l-0.06 -0.24m-0.06 -0.23l-0.08 -0.22m0.55 1.84l0.05 -0.03m-0.79 -2.18l-0.11 -0.15m0.58 0.4l-0.06 0m0.12 0.02l-0.06 -0.02m0.32 1.93l0.05 -0.04m-0.24 -1.83l-0.07 -0.04m0.31 1.87l0.05 -0.06m-0.17 -1.66l-0.06 -0.06m0.02 1.86l0.06 -0.01m-0.37 0.82l0.09 -0.12m-0.86 -3.01l0.01 0.03m-0.04 -0.08l0.02 0.03m-0.02 0.23l-0.01 0m0.06 -0.1l0 0.03m-0.01 0.03l-0.01 0.02m-0.1 -0.07l-0.01 -0.04m0.03 0.1l-0.01 -0.03m0 0l-0.01 -0.03m0.12 0.02l-0.01 0.03m0 -0.14l0.01 0.04m-0.13 0.01l0 -0.03m0.02 -0.09l0.01 -0.01m0.08 0.24l-0.01 0.02m-0.04 -0.27l0.02 0.01m0.02 0.03l0.01 0.02m-0.08 -0.05l0.02 -0.01m0 0l0.01 0m-0.06 0.08l0.01 -0.03m0.09 0.22l-0.02 0m-0.07 -0.22l0.01 -0.03m0.05 0.25l-0.02 -0.01m0 0l-0.02 -0.02m-0.03 -0.13l0 -0.03m0.13 0.05l0 0.04m0.51 2.42l-0.01 -0.03m0.02 -0.18l0.01 0m0.25 0.24l-0.01 0m-0.17 -0.18l0.01 0.03m-0.02 -0.06l0.01 0.03m0 0.19l-0.01 0.02m-0.08 -0.25l0.01 -0.02m0.09 0.09l0.01 0.04m-1.18 -0.48l-0.01 0.02m0.12 -0.7l0 0.11m0.24 -0.76l-0.05 0.02m-0.12 0.16l-0.02 0.08m-0.28 0.94l0 -0.03m0 0l0.01 -0.02m0.27 -0.89l-0.03 0.09m-0.13 0.94l0 0.04m-0.06 0.06l-0.02 -0.01m0.5 0.22l0.05 0.04m-0.58 -0.49l0.02 -0.02m0.2 -0.37l0.01 0.11m-0.18 0.26l0.01 0.01m0.04 0.21l-0.01 0.03m0 0l-0.01 0.01m-0.05 -0.01l-0.01 -0.02m0.35 -1.3l-0.04 0.06m-0.3 1.01l0.02 0m0.01 0.01l0.02 0.02m0.25 -1.04l-0.04 0.06m-0.06 0.26l-0.01 0.11m0.19 -0.53l-0.04 0.04m-0.15 0.49l0 0.1m-0.15 0.75l-0.02 -0.01m1.24 0.49l-0.01 0.03m-0.12 -0.09l0 -0.04m0.01 -0.06l0.01 -0.02m0.06 0.25l-0.02 0m0.06 -0.04l-0.01 0.02m-0.11 -0.15l0 -0.03m0.1 0.2l-0.02 0m-0.07 -0.09l-0.01 -0.04m0.08 -0.13l0.02 0.02m-0.1 0.04l0.01 -0.03m0.05 -0.04l0.02 0.01m-0.02 0.26l-0.01 -0.01m0 0l-0.02 -0.02m0 0l-0.01 -0.03m-1.1 -0.5l-0.01 0.01m1.13 0.28l0.02 0m0.07 0.13l0 0.04m0 0l0 0.03m-0.18 0.77l0.11 -0.02m-0.35 0.06l0.24 -0.04m-0.15 -3.59l-0.11 -0.07m0.23 3.62l0.1 -0.08m0.15 0.04l0.09 -0.08m-0.16 -0.08l0.08 -0.14m0.17 0.1l0.07 -0.14m0.14 -1.51l-0.04 -0.24m-0.28 1.62l0.05 -0.18m0.2 0.15l0.05 -0.19m-0.25 0.04l0.04 -0.21m-0.51 0.95l0.1 -0.05m0.14 0.02l0.11 -0.06m0.43 -1.36l-0.01 -0.24m-0.12 -0.73l-0.07 -0.23m-0.12 -0.3l0.02 0m0.22 0.77l-0.05 -0.24m-1.03 -1.22l-0.11 -0.03m0.36 0l-0.12 -0.03m-0.66 0.21l-0.08 0.12m0.77 3.39l0.11 0.01m-0.38 -3.7l-0.12 0m0 0l0.25 -0.03m0.11 0l-0.11 0m-0.67 2.65l0.07 0.21m0.15 -2.74l-0.1 0.09m1.44 2.31l0 -0.23m0.24 0.2l0.01 -0.24m-1.39 -2.22l-0.1 0.03m0 0l-0.1 0.06m0.91 0.07l-0.12 -0.09m0.79 1.91l-0.03 -0.25m-1.19 1.85l0.11 0.07m0 0l0.12 0.04m-0.99 -2l0.02 0.24m1.5 -1.49l-0.1 -0.15m0.37 0.73l-0.08 -0.21m-1.62 -0.2l-0.05 0.19m0.3 2.22l0.1 0.18m0 0l0.1 0.15m0 0l0.11 0.13m-0.66 -2.03l0.01 0.24m0.65 1.79l0.11 0.1m0.3 -3.38l-0.11 -0.1m-0.84 2.29l0.07 0.23m0.04 -2.32l-0.07 0.14m1.27 -0.15l-0.11 -0.13m0.41 2.56l0.02 -0.23m0.22 0.19l0.02 -0.22m-0.36 -1.85l-0.1 -0.17m-1.5 1.49l0.04 0.23m-0.05 -1.16l-0.02 0.22m1.19 1.29l0.03 -0.08m-0.06 0.14l0.03 -0.06m0.03 -0.08l0.02 -0.09m0 0l0.02 -0.09m0 0l0.01 -0.11m0.31 1.14l0.06 -0.17m-0.22 0.43l0.08 -0.12m-0.75 -2.43l-0.05 0.02m-0.21 0.99l0.03 0.1m0 0l0.03 0.11m0 0l0.03 0.1m0.04 0.09l0.05 0.08m0 0l0.05 0.07m0 0l0.05 0.06m0.05 0.04l0.05 0.03m0 0l0.05 0.02m0 0l0.06 0m0 0l0.05 -0.01m0 0l0.04 -0.02m0 0l0.05 -0.04m0 0l0.04 -0.06m0.11 -0.43l0 -0.1m0 0l0 -0.11m0 0l-0.02 -0.12m0 0l-0.01 -0.11m0 0l-0.03 -0.11m0 0l-0.03 -0.1m0 0l-0.04 -0.1m0 0l-0.04 -0.09m0 0l-0.04 -0.09m0 0l-0.05 -0.07m0 0l-0.05 -0.05m0 0l-0.05 -0.05m0 0l-0.06 -0.03m0 0l-0.05 -0.02m0 0l-0.05 0m-0.4 1.28l0 0.03m-0.01 -0.07l0.01 0.04m-0.02 -0.07l0.01 0.03m-0.02 -0.06l0.01 0.03m-0.07 -0.06l0.01 0m-0.05 0.1l0.01 -0.03m0 0.07l-0.01 -0.04m0.01 0.07l0 -0.03m0.01 0.06l-0.01 -0.03m0.03 0.06l-0.02 -0.03m2.07 -0.55l-0.01 -0.13m-0.08 0.81l0.03 -0.09m0.06 -0.46l0 -0.13m-0.03 0.49l0.02 -0.11m-0.18 -1.1l-0.05 -0.1m0.14 0.32l-0.04 -0.12m-0.35 2.07l0.07 -0.16m0.28 -1.91l-0.05 -0.1m0.13 0.34l-0.04 -0.12m0.09 0.37l-0.03 -0.13m0.04 0.52l0 -0.13m-0.04 -0.39l-0.02 -0.12m0.05 0.76l0.01 -0.12m-0.06 0.33l0.03 -0.1m-0.21 -1.31l-0.06 -0.08m-1.42 0.3l-0.06 0.13m0.74 0.72l-0.02 -0.23m0 0l-0.04 -0.22m0 0l-0.07 -0.2m0 0l-0.08 -0.18m0 0l-0.1 -0.12m0 0l-0.11 -0.08m0 0l-0.1 -0.02m0 0l-0.1 0.04m0 0l-0.08 0.1m0 0l-0.06 0.14m0 0l-0.04 0.18m0 0l-0.01 0.21m0 0l0.01 0.22m0 0l0.05 0.22m0 0l0.06 0.21m0 0l0.09 0.17m0 0l0.1 0.13m0 0l0.1 0.07m0 0l0.11 0.02m0 0l0.09 -0.03m0 0l0.09 -0.1m0 0l0.06 -0.14m0 0l0.04 -0.18m0 0l0.01 -0.21m-0.03 -0.02l-0.02 -0.2m0.01 0.4l0.01 -0.2m-0.05 0.36l0.04 -0.16m-0.1 0.3l0.06 -0.14m-0.13 0.22l0.07 -0.08m-0.16 0.12l0.09 -0.04m-0.19 0.02l0.1 0.02m-0.2 -0.1l0.1 0.08m-0.19 -0.19l0.09 0.11m-0.16 -0.27l0.07 0.16m-0.14 -0.35l0.07 0.19m-0.1 -0.39l0.03 0.2m-0.05 -0.4l0.02 0.2m-0.01 -0.39l-0.01 0.19m0.04 -0.36l-0.03 0.17m0.17 -0.39l-0.08 0.09m0.17 -0.13l-0.09 0.04m0.18 -0.02l-0.09 -0.02m0.19 0.09l-0.1 -0.07m0.19 0.19l-0.09 -0.12m0.17 0.27l-0.08 -0.15m0.14 0.34l-0.06 -0.19m0.1 0.4l-0.04 -0.21m10.39 -2.24l-0.03 0.02m0 0l-0.03 0.02m0.18 1.69l0.09 0.03m0.09 0.09l0.24 0.1m0 0l0.03 0.01m0.21 0.04l-0.21 -0.04m-10.19 -0.5l0 -0.01m0 0l-0.06 -0.04m-0.17 0.03l-0.04 -0.09m0 0l-0.05 -0.11m0.31 2.28l0.03 -0.2m0 0l0 -0.01m0.21 -0.13l0.01 -0.03m0 0l0.03 -0.05m9.49 -3.02l-0.26 0.03m0 0l-9.5 1.34m9.98 0.24l-0.24 0.04m0 0l-9.5 1.42m9.59 -1.39l0.07 0.03m0 0l0.09 0.03m0.65 0.22l-0.23 -0.04"/>
 </g>
</svg>
